<svg width="243" height="101" viewBox="0 0 243 101" fill="none" xmlns="http://www.w3.org/2000/svg">
<path d="M63.5312 32.3799L0.00205534 50.2647L63.5312 68.1473L63.5312 32.3799Z" fill="#276AD3"/>
<path d="M57.7422 38.0371L14.2945 50.2649L57.7422 62.4955L57.7422 38.0371Z" fill="#9DC3FF"/>
<path d="M56.8281 50.2651C56.8281 52.7937 49.793 54.8421 41.1141 54.8421C32.4374 54.8421 25.3987 52.7937 25.3987 50.2651C25.3987 47.7379 32.4367 45.6895 41.1141 45.6895C49.793 45.6895 56.8281 47.7379 56.8281 50.2651Z" fill="#3C83F1"/>
<path d="M113.172 59.0355L113.172 41.4919L102.659 41.4919L102.659 59.0355L113.172 59.0355Z" fill="#474747"/>
<path d="M53.9305 38.5465C45.176 50.6029 53.3249 61.3201 54.261 62.5527C55.1969 63.7854 60.5192 70.3942 69.6963 71.0372C78.8727 71.6802 87.8871 65.3211 87.8871 65.3211L91.2618 63.5442C92.5081 62.8875 94.1259 62.5318 95.4975 62.2158C97.8145 61.6822 100.522 61.6491 102.577 60.3625C102.857 60.1875 103.101 59.9895 103.32 59.7764L103.32 40.3054C101.245 38.797 99.1227 38.8712 96.561 38.4788C93.5809 38.0223 90.8794 36.6651 88.2896 35.2244C87.5185 34.796 80.4157 31.2054 78.2686 30.4018C76.1202 29.5976 62.685 26.4894 53.9305 38.5465Z" fill="url(#paint0_linear_493_3993)"/>
<path d="M103.303 55.1955L75.1064 56.8343L78.2514 55.1055C78.4458 54.9968 78.561 54.8183 78.5466 54.6303C78.535 54.4453 78.4018 54.2754 78.1916 54.1861L74.0638 52.3515L78.4328 50.4572C78.656 50.355 78.7914 50.1779 78.7914 49.9806C78.7885 49.7811 78.661 49.6019 78.4414 49.5032L74.192 47.5859L78.0807 46.2481C78.3133 46.1653 78.4724 45.9954 78.4954 45.7959C78.5185 45.603 78.4069 45.4093 78.1959 45.2991L75.2461 43.7223L103.32 45.5698L103.32 44.4719L72.7074 42.4573C72.3855 42.435 72.0882 42.5833 71.9809 42.8195C71.8736 43.0499 71.9809 43.3091 72.2458 43.4538L76.3477 45.6426L72.3495 47.0199C72.1076 47.1013 71.9456 47.2849 71.9312 47.4887C71.9154 47.6881 72.0514 47.8868 72.2804 47.9891L76.6587 49.9676L72.2811 51.8706C72.0594 51.9663 71.9233 52.1478 71.9211 52.3465C71.9139 52.551 72.0558 52.7209 72.2775 52.8203L76.5226 54.7059L72.2091 57.0805C71.9514 57.2209 71.8491 57.4801 71.9528 57.7134C72.0644 57.9431 72.3596 58.0899 72.6764 58.0727L103.301 56.2935L103.303 55.1955Z" fill="#3C83F1"/>
<path d="M242.406 50.2632L93.7997 -6.4958e-06L108.841 50.2632L93.7997 100.528L242.406 50.2632Z" fill="url(#paint1_linear_493_3993)"/>
<path d="M242.406 50.2648L106.033 40.8789L108.842 50.2634L106.034 59.6486L242.406 50.2648Z" fill="url(#paint2_linear_493_3993)"/>
<defs>
<linearGradient id="paint0_linear_493_3993" x1="76.6176" y1="29.4453" x2="76.6176" y2="71.0829" gradientUnits="userSpaceOnUse">
<stop stop-color="#777777"/>
<stop offset="1" stop-color="#2E2E2E"/>
</linearGradient>
<linearGradient id="paint1_linear_493_3993" x1="168.103" y1="-3.2479e-06" x2="168.103" y2="100.528" gradientUnits="userSpaceOnUse">
<stop stop-color="#444444"/>
<stop offset="1" stop-color="#212121"/>
</linearGradient>
<linearGradient id="paint2_linear_493_3993" x1="242" y1="50" x2="106" y2="50" gradientUnits="userSpaceOnUse">
<stop stop-color="#6C6C6C"/>
<stop offset="1" stop-color="#242424"/>
</linearGradient>
</defs>
</svg>
