<svg width="40" height="40" viewBox="0 0 40 40" fill="none" xmlns="http://www.w3.org/2000/svg">
<rect width="40" height="40" rx="8" fill="black" fill-opacity="0.2"/>
<path fill-rule="evenodd" clip-rule="evenodd" d="M14.268 11C14.4435 10.696 14.696 10.4435 15 10.268C15.3041 10.0924 15.6489 10 16 10H21C21.3511 10 21.6959 10.0924 22 10.268C22.304 10.4435 22.5565 10.696 22.732 11H24C24.5304 11 25.0391 11.2107 25.4142 11.5858C25.7893 11.9609 26 12.4696 26 13V17H27C27.5304 17 28.0391 17.2107 28.4142 17.5858C28.7893 17.9609 29 18.4696 29 19V28C29 28.5304 28.7893 29.0391 28.4142 29.4142C28.0391 29.7893 27.5304 30 27 30H19C18.4696 30 17.9609 29.7893 17.5858 29.4142C17.2107 29.0391 17 28.5304 17 28V27H13C12.4696 27 11.9609 26.7893 11.5858 26.4142C11.2107 26.0391 11 25.5304 11 25V13C11 12.4696 11.2107 11.9609 11.5858 11.5858C11.9609 11.2107 12.4696 11 13 11H14.268ZM14 13H13V25H17V19C17 18.4696 17.2107 17.9609 17.5858 17.5858C17.9609 17.2107 18.4696 17 19 17H24V13H23C23 13.5304 22.7893 14.0391 22.4142 14.4142C22.0391 14.7893 21.5304 15 21 15H16C15.4696 15 14.9609 14.7893 14.5858 14.4142C14.2107 14.0391 14 13.5304 14 13ZM19 19V28H27V19H19ZM21 12H16V13H21V12Z" fill="white" fill-opacity="0.5"/>
</svg>
