<svg width="175" height="167" viewBox="0 0 175 167" fill="none" xmlns="http://www.w3.org/2000/svg">
<path d="M0.863144 82.3795L0 82.4805L1.5407 95.6494L2.40385 95.5484L0.863144 82.3795Z" fill="#407BFF"/>
<path d="M2.97253 100.444L2.10938 100.545L2.88634 107.186L3.74949 107.085L2.97253 100.444Z" fill="#407BFF"/>
<path d="M60.5131 55.5379L59.4866 52.6604C58.0316 48.5812 53.9524 46.0467 49.6508 46.5497L8.77184 51.3312C3.67214 51.9274 0.0222824 56.5446 0.618474 61.6444L12.2549 161.126C12.6638 164.623 15.8303 167.127 19.3271 166.718L165.586 149.611C169.082 149.202 171.586 146.036 171.177 142.539L161.119 56.5404C160.71 53.0436 157.544 50.54 154.047 50.9488L69.1164 60.8822C65.3536 61.3219 61.7859 59.1056 60.5131 55.5379Z" fill="url(#paint0_linear_493_3874)"/>
<path d="M64.6034 12.2661L18.3906 21.4785L31.0825 85.1454L77.2953 75.933L64.6034 12.2661Z" fill="url(#paint1_linear_493_3874)"/>
<g opacity="0.4">
<path d="M58.4216 27.5972L29.954 33.2709C28.5735 33.5463 27.2314 32.6499 26.956 31.2693C26.6806 29.8887 27.577 28.5467 28.9575 28.2712L57.4251 22.5976C58.8056 22.3222 60.1477 23.2186 60.4231 24.5992C60.6986 25.9797 59.8021 27.3218 58.4216 27.5972Z" fill="url(#paint2_linear_493_3874)"/>
<path d="M60.5231 38.1236L32.0556 43.7972C30.675 44.0727 29.333 43.1762 29.0575 41.7957C28.7821 40.4151 29.6785 39.073 31.0591 38.7976L59.5266 33.1239C60.9072 32.8485 62.2493 33.7449 62.5247 35.1255C62.7993 36.5069 61.9037 37.849 60.5231 38.1236Z" fill="url(#paint3_linear_493_3874)"/>
<path d="M62.6169 48.6519L34.1494 54.3256C32.7688 54.601 31.4267 53.7046 31.1513 52.324C30.8759 50.9434 31.7723 49.6014 33.1529 49.3259L61.6204 43.6523C63.0009 43.3768 64.343 44.2733 64.6184 45.6538C64.893 47.0344 63.9974 48.3765 62.6169 48.6519Z" fill="url(#paint4_linear_493_3874)"/>
<path d="M64.7184 59.1792L36.2509 64.8529C34.8704 65.1283 33.5283 64.2319 33.2529 62.8513C32.9774 61.4708 33.8738 60.1287 35.2544 59.8533L63.7219 54.1796C65.1025 53.9042 66.4446 54.8006 66.72 56.1812C66.9946 57.5626 66.099 58.9047 64.7184 59.1792Z" fill="url(#paint5_linear_493_3874)"/>
<path d="M59.0318 71.2574L38.3447 75.3802C36.9641 75.6557 35.622 74.7592 35.3466 73.3787C35.0712 71.9981 35.9676 70.656 37.3482 70.3806L58.0352 66.2577C59.4158 65.9823 60.7579 66.8787 61.0333 68.2593C61.3079 69.6399 60.4123 70.982 59.0318 71.2574Z" fill="url(#paint6_linear_493_3874)"/>
</g>
<path d="M124.51 0.813718L89.7104 5.57629C86.4272 6.02563 84.1299 9.05147 84.5792 12.3347L91.7552 64.7677C92.2045 68.0509 95.2303 70.3483 98.5136 69.8989L133.313 65.1363C136.596 64.687 138.893 61.6612 138.444 58.3779L131.268 5.94492C130.819 2.66169 127.793 0.364379 124.51 0.813718Z" fill="url(#paint7_linear_493_3874)"/>
<g opacity="0.4">
<path d="M123.357 14.9157L94.5976 18.8521C93.2033 19.0429 91.9177 18.0669 91.7269 16.6726C91.5362 15.2784 92.5122 13.9928 93.9064 13.802L122.666 9.86561C124.06 9.67486 125.345 10.6508 125.536 12.0451C125.728 13.4402 124.752 14.725 123.357 14.9157Z" fill="url(#paint8_linear_493_3874)"/>
<path d="M124.81 25.5506L96.0507 29.487C94.6564 29.6777 93.3708 28.7018 93.1801 27.3075C92.9893 25.9124 93.9653 24.6276 95.3595 24.4369L124.119 20.5014C125.513 20.3106 126.799 21.2866 126.989 22.6808C127.18 24.0742 126.204 25.3598 124.81 25.5506Z" fill="url(#paint9_linear_493_3874)"/>
<path d="M105.436 39.0378L97.5116 40.1224C96.1174 40.3131 94.8317 39.3371 94.641 37.9429C94.4503 36.5478 95.4262 35.263 96.8205 35.0723L104.745 33.9877C106.139 33.7969 107.424 34.7729 107.615 36.1672C107.806 37.5623 106.831 38.847 105.436 39.0378Z" fill="url(#paint10_linear_493_3874)"/>
<path d="M120.795 36.9352L112.871 38.0198C111.477 38.2106 110.191 37.2346 110 35.8404C109.81 34.4461 110.786 33.1605 112.18 32.9698L120.104 31.8851C121.498 31.6944 122.784 32.6704 122.975 34.0646C123.165 35.4589 122.189 36.7445 120.795 36.9352Z" fill="url(#paint11_linear_493_3874)"/>
<path d="M127.724 46.8229L98.9647 50.7593C97.5705 50.9501 96.2849 49.9741 96.0941 48.5799C95.9034 47.1847 96.8793 45.9 98.2736 45.7092L127.033 41.7728C128.428 41.5821 129.713 42.5581 129.903 43.9523C130.095 45.3466 129.119 46.6313 127.724 46.8229Z" fill="url(#paint12_linear_493_3874)"/>
<path d="M121.317 58.5336L100.418 61.394C99.0236 61.5847 97.738 60.6087 97.5473 59.2145C97.3565 57.8202 98.3325 56.5346 99.7267 56.3439L120.626 53.4835C122.02 53.2928 123.306 54.2688 123.497 55.663C123.688 57.0573 122.712 58.3429 121.317 58.5336Z" fill="url(#paint13_linear_493_3874)"/>
</g>
<path d="M80.4113 9.91301L45.4225 12.9616C42.1214 13.2493 39.6785 16.1585 39.9661 19.4596L44.5596 72.1784C44.8472 75.4795 47.7564 77.9224 51.0576 77.6348L86.0463 74.5862C89.3475 74.2986 91.7904 71.3893 91.5027 68.0882L86.9093 15.3694C86.6217 12.0683 83.7124 9.62538 80.4113 9.91301Z" fill="url(#paint14_linear_493_3874)"/>
<g opacity="0.4">
<path d="M78.5781 23.9465L49.6607 26.4664C48.2587 26.5887 47.0227 25.5512 46.9004 24.1484C46.7781 22.7464 47.8157 21.5104 49.2185 21.3881L78.1359 18.8682C79.5379 18.7459 80.7739 19.7834 80.8962 21.1862C81.0176 22.5891 79.9801 23.8242 78.5781 23.9465Z" fill="url(#paint15_linear_493_3874)"/>
<path d="M79.5078 34.6407L50.5904 37.1606C49.1884 37.283 47.9524 36.2454 47.8301 34.8426C47.7078 33.4406 48.7454 32.2046 50.1482 32.0823L79.0656 29.5616C80.4676 29.4392 81.7035 30.4768 81.8259 31.8796C81.9482 33.2824 80.9106 34.5184 79.5078 34.6407Z" fill="url(#paint16_linear_493_3874)"/>
<path d="M80.4453 45.3352L51.5279 47.8551C50.1259 47.9774 48.8899 46.9398 48.7676 45.537C48.6453 44.1342 49.6829 42.8991 51.0857 42.7768L80.0031 40.2569C81.405 40.1345 82.6411 41.1721 82.7634 42.5749C82.8857 43.9769 81.8473 45.2129 80.4453 45.3352Z" fill="url(#paint17_linear_493_3874)"/>
<path d="M81.375 56.0285L52.4576 58.5485C51.0548 58.6708 49.8196 57.6332 49.6973 56.2304C49.575 54.8285 50.6125 53.5925 52.0153 53.4701L80.9328 50.9502C82.3347 50.8279 83.5707 51.8655 83.6931 53.2683C83.8145 54.6702 82.777 55.9062 81.375 56.0285Z" fill="url(#paint18_linear_493_3874)"/>
<path d="M74.4011 67.4123L53.3873 69.2437C51.9853 69.366 50.7493 68.3284 50.627 66.9256C50.5047 65.5237 51.5422 64.2877 52.945 64.1653L73.9589 62.334C75.3608 62.2117 76.5968 63.2492 76.7191 64.6521C76.8406 66.054 75.803 67.29 74.4011 67.4123Z" fill="url(#paint19_linear_493_3874)"/>
</g>
<path d="M137.596 6.52548L102.516 8.21837C99.2065 8.37809 96.6529 11.1906 96.8126 14.5004L99.3634 67.3568C99.5231 70.6665 102.336 73.2201 105.645 73.0604L140.725 71.3675C144.035 71.2077 146.589 68.3952 146.429 65.0855L143.878 12.2291C143.719 8.91934 140.906 6.36576 137.596 6.52548Z" fill="url(#paint20_linear_493_3874)"/>
<g opacity="0.4">
<path d="M135.236 20.4807L106.242 21.8801C104.836 21.9477 103.641 20.8631 103.573 19.4569C103.506 18.0507 104.59 16.8557 105.996 16.7881L134.989 15.3887C136.396 15.3212 137.59 16.4058 137.658 17.812C137.726 19.2174 136.641 20.4123 135.236 20.4807Z" fill="url(#paint21_linear_493_3874)"/>
<path d="M135.751 31.2034L106.758 32.6028C105.351 32.6704 104.157 31.5857 104.089 30.1795C104.021 28.7733 105.106 27.5784 106.512 27.5108L135.506 26.1114C136.912 26.0438 138.107 27.1284 138.175 28.5347C138.242 29.94 137.157 31.135 135.751 31.2034Z" fill="url(#paint22_linear_493_3874)"/>
<path d="M115.27 42.9388L107.281 43.3245C105.875 43.3921 104.68 42.3075 104.612 40.9013C104.545 39.495 105.629 38.3009 107.035 38.2325L115.024 37.8467C116.43 37.7792 117.625 38.8638 117.693 40.27C117.761 41.6762 116.676 42.8712 115.27 42.9388Z" fill="url(#paint23_linear_493_3874)"/>
<path d="M130.755 42.1907L122.766 42.5765C121.359 42.644 120.164 41.5594 120.097 40.1532C120.029 38.747 121.114 37.5529 122.52 37.4845L130.509 37.0987C131.915 37.0311 133.11 38.1157 133.178 39.5219C133.245 40.9282 132.161 42.1223 130.755 42.1907Z" fill="url(#paint24_linear_493_3874)"/>
<path d="M136.783 52.6477L107.789 54.0471C106.383 54.1147 105.189 53.0301 105.12 51.6239C105.053 50.2176 106.137 49.0227 107.543 48.9551L136.537 47.5557C137.943 47.4882 139.138 48.5728 139.206 49.979C139.273 51.3852 138.189 52.5793 136.783 52.6477Z" fill="url(#paint25_linear_493_3874)"/>
<path d="M129.382 63.7513L108.312 64.7683C106.906 64.8359 105.711 63.7513 105.644 62.345C105.576 60.9388 106.661 59.7438 108.067 59.6763L129.136 58.6592C130.543 58.5917 131.737 59.6763 131.805 61.0825C131.872 62.4887 130.787 63.6837 129.382 63.7513Z" fill="url(#paint26_linear_493_3874)"/>
</g>
<path d="M73.572 57.3791L72.8227 54.5641C71.7603 50.5729 67.9591 48.1018 63.6574 48.6047L22.7785 53.3854C17.6788 53.9816 13.6415 58.5116 13.7604 63.5036L16.0801 160.883C16.1614 164.306 19.0628 166.749 22.5595 166.34L168.818 149.234C172.315 148.825 175.084 145.718 175.002 142.295L172.997 58.1147C172.916 54.6915 170.015 52.2486 166.518 52.6575L81.5877 62.5909C77.8258 63.0305 74.5009 60.869 73.572 57.3791Z" fill="url(#paint27_linear_493_3874)"/>
<defs>
<linearGradient id="paint0_linear_493_3874" x1="8" y1="174.5" x2="-3.49998" y2="55.5" gradientUnits="userSpaceOnUse">
<stop stop-color="#1F1F1F"/>
<stop offset="1" stop-color="#666666"/>
</linearGradient>
<linearGradient id="paint1_linear_493_3874" x1="41.497" y1="16.8723" x2="54.1889" y2="80.5392" gradientUnits="userSpaceOnUse">
<stop stop-color="#909090"/>
<stop offset="1"/>
</linearGradient>
<linearGradient id="paint2_linear_493_3874" x1="43.6896" y1="22.5479" x2="43.6896" y2="33.3206" gradientUnits="userSpaceOnUse">
<stop stop-color="#9D9D9D"/>
<stop offset="1" stop-color="#272727"/>
</linearGradient>
<linearGradient id="paint3_linear_493_3874" x1="45.791" y1="33.0742" x2="45.791" y2="43.847" gradientUnits="userSpaceOnUse">
<stop stop-color="#9D9D9D"/>
<stop offset="1" stop-color="#272727"/>
</linearGradient>
<linearGradient id="paint4_linear_493_3874" x1="47.8847" y1="43.6025" x2="47.8847" y2="54.3753" gradientUnits="userSpaceOnUse">
<stop stop-color="#9D9D9D"/>
<stop offset="1" stop-color="#272727"/>
</linearGradient>
<linearGradient id="paint5_linear_493_3874" x1="49.9863" y1="54.1299" x2="49.9863" y2="64.9026" gradientUnits="userSpaceOnUse">
<stop stop-color="#9D9D9D"/>
<stop offset="1" stop-color="#272727"/>
</linearGradient>
<linearGradient id="paint6_linear_493_3874" x1="48.1898" y1="66.208" x2="48.1898" y2="75.43" gradientUnits="userSpaceOnUse">
<stop stop-color="#9D9D9D"/>
<stop offset="1" stop-color="#272727"/>
</linearGradient>
<linearGradient id="paint7_linear_493_3874" x1="107.11" y1="3.195" x2="115.913" y2="67.5176" gradientUnits="userSpaceOnUse">
<stop stop-color="#8E8E8E"/>
<stop offset="1" stop-color="#4D4D4D"/>
</linearGradient>
<linearGradient id="paint8_linear_493_3874" x1="108.632" y1="9.8418" x2="108.632" y2="18.8759" gradientUnits="userSpaceOnUse">
<stop stop-color="#686868"/>
<stop offset="1" stop-color="#252525"/>
</linearGradient>
<linearGradient id="paint9_linear_493_3874" x1="110.085" y1="20.4775" x2="110.085" y2="29.5108" gradientUnits="userSpaceOnUse">
<stop stop-color="#686868"/>
<stop offset="1" stop-color="#252525"/>
</linearGradient>
<linearGradient id="paint10_linear_493_3874" x1="101.128" y1="33.9639" x2="101.128" y2="40.1462" gradientUnits="userSpaceOnUse">
<stop stop-color="#686868"/>
<stop offset="1" stop-color="#252525"/>
</linearGradient>
<linearGradient id="paint11_linear_493_3874" x1="116.487" y1="31.8613" x2="116.487" y2="38.0437" gradientUnits="userSpaceOnUse">
<stop stop-color="#686868"/>
<stop offset="1" stop-color="#252525"/>
</linearGradient>
<linearGradient id="paint12_linear_493_3874" x1="112.999" y1="41.749" x2="112.999" y2="50.7832" gradientUnits="userSpaceOnUse">
<stop stop-color="#686868"/>
<stop offset="1" stop-color="#252525"/>
</linearGradient>
<linearGradient id="paint13_linear_493_3874" x1="110.522" y1="53.4597" x2="110.522" y2="61.4178" gradientUnits="userSpaceOnUse">
<stop stop-color="#686868"/>
<stop offset="1" stop-color="#252525"/>
</linearGradient>
<linearGradient id="paint14_linear_493_3874" x1="62.9169" y1="11.4373" x2="68.552" y2="76.1105" gradientUnits="userSpaceOnUse">
<stop stop-color="#737373"/>
<stop offset="1" stop-color="#303030"/>
</linearGradient>
<linearGradient id="paint15_linear_493_3874" x1="63.8982" y1="18.8584" x2="63.8982" y2="26.4762" gradientUnits="userSpaceOnUse">
<stop stop-color="#121212"/>
<stop offset="1" stop-color="#858585"/>
</linearGradient>
<linearGradient id="paint16_linear_493_3874" x1="64.828" y1="29.5518" x2="64.828" y2="37.1704" gradientUnits="userSpaceOnUse">
<stop stop-color="#121212"/>
<stop offset="1" stop-color="#858585"/>
</linearGradient>
<linearGradient id="paint17_linear_493_3874" x1="65.7655" y1="40.2471" x2="65.7655" y2="47.8649" gradientUnits="userSpaceOnUse">
<stop stop-color="#121212"/>
<stop offset="1" stop-color="#858585"/>
</linearGradient>
<linearGradient id="paint18_linear_493_3874" x1="66.6951" y1="50.9404" x2="66.6951" y2="58.5583" gradientUnits="userSpaceOnUse">
<stop stop-color="#121212"/>
<stop offset="1" stop-color="#858585"/>
</linearGradient>
<linearGradient id="paint19_linear_493_3874" x1="63.673" y1="62.3242" x2="63.673" y2="69.2535" gradientUnits="userSpaceOnUse">
<stop stop-color="#121212"/>
<stop offset="1" stop-color="#858585"/>
</linearGradient>
<linearGradient id="paint20_linear_493_3874" x1="120.056" y1="7.37192" x2="123.185" y2="72.2139" gradientUnits="userSpaceOnUse">
<stop stop-color="#676767"/>
<stop offset="1" stop-color="#1F1F1F"/>
</linearGradient>
<linearGradient id="paint21_linear_493_3874" x1="120.616" y1="15.3857" x2="120.616" y2="21.8831" gradientUnits="userSpaceOnUse">
<stop stop-color="#ABABAB"/>
<stop offset="1" stop-color="#191919"/>
</linearGradient>
<linearGradient id="paint22_linear_493_3874" x1="121.132" y1="26.1084" x2="121.132" y2="32.6058" gradientUnits="userSpaceOnUse">
<stop stop-color="#ABABAB"/>
<stop offset="1" stop-color="#191919"/>
</linearGradient>
<linearGradient id="paint23_linear_493_3874" x1="111.153" y1="37.8438" x2="111.153" y2="43.3275" gradientUnits="userSpaceOnUse">
<stop stop-color="#ABABAB"/>
<stop offset="1" stop-color="#191919"/>
</linearGradient>
<linearGradient id="paint24_linear_493_3874" x1="126.637" y1="37.0957" x2="126.637" y2="42.5795" gradientUnits="userSpaceOnUse">
<stop stop-color="#ABABAB"/>
<stop offset="1" stop-color="#191919"/>
</linearGradient>
<linearGradient id="paint25_linear_493_3874" x1="122.163" y1="47.5527" x2="122.163" y2="54.0501" gradientUnits="userSpaceOnUse">
<stop stop-color="#ABABAB"/>
<stop offset="1" stop-color="#191919"/>
</linearGradient>
<linearGradient id="paint26_linear_493_3874" x1="118.724" y1="58.6562" x2="118.724" y2="64.7713" gradientUnits="userSpaceOnUse">
<stop stop-color="#ABABAB"/>
<stop offset="1" stop-color="#191919"/>
</linearGradient>
<linearGradient id="paint27_linear_493_3874" x1="94.381" y1="48.54" x2="94.381" y2="166.385" gradientUnits="userSpaceOnUse">
<stop stop-color="#2F6ED0"/>
<stop offset="1" stop-color="#001442"/>
</linearGradient>
</defs>
</svg>
