<svg width="1720" height="1118" viewBox="0 0 1720 1118" fill="none" xmlns="http://www.w3.org/2000/svg">
<mask id="path-1-inside-1_493_4383" fill="white">
<path d="M1720 0H1634V86H1720V0Z"/>
<path d="M1634 0H1548V86H1634V0Z"/>
<path d="M1548 0H1462V86H1548V0Z"/>
<path d="M1462 0H1376V86H1462V0Z"/>
<path d="M1376 0H1290V86H1376V0Z"/>
<path d="M1290 0H1204V86H1290V0Z"/>
<path d="M1204 0H1118V86H1204V0Z"/>
<path d="M1118 0H1032V86H1118V0Z"/>
<path d="M1032 0H946V86H1032V0Z"/>
<path d="M946 0H860V86H946V0Z"/>
<path d="M860 0H774V86H860V0Z"/>
<path d="M774 0H688V86H774V0Z"/>
<path d="M688 0H602V86H688V0Z"/>
<path d="M602 0H516V86H602V0Z"/>
<path d="M516 0H430V86H516V0Z"/>
<path d="M430 0H344V86H430V0Z"/>
<path d="M344 0H258V86H344V0Z"/>
<path d="M258 0H172V86H258V0Z"/>
<path d="M172 0H86V86H172V0Z"/>
<path d="M86 0H0V86H86V0Z"/>
<path d="M1720 86H1634V172H1720V86Z"/>
<path d="M1634 86H1548V172H1634V86Z"/>
<path d="M1548 86H1462V172H1548V86Z"/>
<path d="M1462 86H1376V172H1462V86Z"/>
<path d="M1376 86H1290V172H1376V86Z"/>
<path d="M1290 86H1204V172H1290V86Z"/>
<path d="M1204 86H1118V172H1204V86Z"/>
<path d="M1118 86H1032V172H1118V86Z"/>
<path d="M1032 86H946V172H1032V86Z"/>
<path d="M946 86H860V172H946V86Z"/>
<path d="M860 86H774V172H860V86Z"/>
<path d="M774 86H688V172H774V86Z"/>
<path d="M688 86H602V172H688V86Z"/>
<path d="M602 86H516V172H602V86Z"/>
<path d="M516 86H430V172H516V86Z"/>
<path d="M430 86H344V172H430V86Z"/>
<path d="M344 86H258V172H344V86Z"/>
<path d="M258 86H172V172H258V86Z"/>
<path d="M172 86H86V172H172V86Z"/>
<path d="M86 86H0V172H86V86Z"/>
<path d="M1720 172H1634V258H1720V172Z"/>
<path d="M1634 172H1548V258H1634V172Z"/>
<path d="M1548 172H1462V258H1548V172Z"/>
<path d="M1462 172H1376V258H1462V172Z"/>
<path d="M1376 172H1290V258H1376V172Z"/>
<path d="M1290 172H1204V258H1290V172Z"/>
<path d="M1204 172H1118V258H1204V172Z"/>
<path d="M1118 172H1032V258H1118V172Z"/>
<path d="M1032 172H946V258H1032V172Z"/>
<path d="M946 172H860V258H946V172Z"/>
<path d="M860 172H774V258H860V172Z"/>
<path d="M774 172H688V258H774V172Z"/>
<path d="M688 172H602V258H688V172Z"/>
<path d="M602 172H516V258H602V172Z"/>
<path d="M516 172H430V258H516V172Z"/>
<path d="M430 172H344V258H430V172Z"/>
<path d="M344 172H258V258H344V172Z"/>
<path d="M258 172H172V258H258V172Z"/>
<path d="M172 172H86V258H172V172Z"/>
<path d="M86 172H0V258H86V172Z"/>
<path d="M1720 258H1634V344H1720V258Z"/>
<path d="M1634 258H1548V344H1634V258Z"/>
<path d="M1548 258H1462V344H1548V258Z"/>
<path d="M1462 258H1376V344H1462V258Z"/>
<path d="M1376 258H1290V344H1376V258Z"/>
<path d="M1290 258H1204V344H1290V258Z"/>
<path d="M1204 258H1118V344H1204V258Z"/>
<path d="M1118 258H1032V344H1118V258Z"/>
<path d="M1032 258H946V344H1032V258Z"/>
<path d="M946 258H860V344H946V258Z"/>
<path d="M860 258H774V344H860V258Z"/>
<path d="M774 258H688V344H774V258Z"/>
<path d="M688 258H602V344H688V258Z"/>
<path d="M602 258H516V344H602V258Z"/>
<path d="M516 258H430V344H516V258Z"/>
<path d="M430 258H344V344H430V258Z"/>
<path d="M344 258H258V344H344V258Z"/>
<path d="M258 258H172V344H258V258Z"/>
<path d="M172 258H86V344H172V258Z"/>
<path d="M86 258H0V344H86V258Z"/>
<path d="M1720 344H1634V430H1720V344Z"/>
<path d="M1634 344H1548V430H1634V344Z"/>
<path d="M1548 344H1462V430H1548V344Z"/>
<path d="M1462 344H1376V430H1462V344Z"/>
<path d="M1376 344H1290V430H1376V344Z"/>
<path d="M1290 344H1204V430H1290V344Z"/>
<path d="M1204 344H1118V430H1204V344Z"/>
<path d="M1118 344H1032V430H1118V344Z"/>
<path d="M1032 344H946V430H1032V344Z"/>
<path d="M946 344H860V430H946V344Z"/>
<path d="M860 344H774V430H860V344Z"/>
<path d="M774 344H688V430H774V344Z"/>
<path d="M688 344H602V430H688V344Z"/>
<path d="M602 344H516V430H602V344Z"/>
<path d="M516 344H430V430H516V344Z"/>
<path d="M430 344H344V430H430V344Z"/>
<path d="M344 344H258V430H344V344Z"/>
<path d="M258 344H172V430H258V344Z"/>
<path d="M172 344H86V430H172V344Z"/>
<path d="M86 344H0V430H86V344Z"/>
<path d="M1720 430H1634V516H1720V430Z"/>
<path d="M1634 430H1548V516H1634V430Z"/>
<path d="M1548 430H1462V516H1548V430Z"/>
<path d="M1462 430H1376V516H1462V430Z"/>
<path d="M1376 430H1290V516H1376V430Z"/>
<path d="M1290 430H1204V516H1290V430Z"/>
<path d="M1204 430H1118V516H1204V430Z"/>
<path d="M1118 430H1032V516H1118V430Z"/>
<path d="M1032 430H946V516H1032V430Z"/>
<path d="M946 430H860V516H946V430Z"/>
<path d="M860 430H774V516H860V430Z"/>
<path d="M774 430H688V516H774V430Z"/>
<path d="M688 430H602V516H688V430Z"/>
<path d="M602 430H516V516H602V430Z"/>
<path d="M516 430H430V516H516V430Z"/>
<path d="M430 430H344V516H430V430Z"/>
<path d="M344 430H258V516H344V430Z"/>
<path d="M258 430H172V516H258V430Z"/>
<path d="M172 430H86V516H172V430Z"/>
<path d="M86 430H0V516H86V430Z"/>
<path d="M1720 516H1634V602H1720V516Z"/>
<path d="M1634 516H1548V602H1634V516Z"/>
<path d="M1548 516H1462V602H1548V516Z"/>
<path d="M1462 516H1376V602H1462V516Z"/>
<path d="M1376 516H1290V602H1376V516Z"/>
<path d="M1290 516H1204V602H1290V516Z"/>
<path d="M1204 516H1118V602H1204V516Z"/>
<path d="M1118 516H1032V602H1118V516Z"/>
<path d="M1032 516H946V602H1032V516Z"/>
<path d="M946 516H860V602H946V516Z"/>
<path d="M860 516H774V602H860V516Z"/>
<path d="M774 516H688V602H774V516Z"/>
<path d="M688 516H602V602H688V516Z"/>
<path d="M602 516H516V602H602V516Z"/>
<path d="M516 516H430V602H516V516Z"/>
<path d="M430 516H344V602H430V516Z"/>
<path d="M344 516H258V602H344V516Z"/>
<path d="M258 516H172V602H258V516Z"/>
<path d="M172 516H86V602H172V516Z"/>
<path d="M86 516H0V602H86V516Z"/>
<path d="M1720 602H1634V688H1720V602Z"/>
<path d="M1634 602H1548V688H1634V602Z"/>
<path d="M1548 602H1462V688H1548V602Z"/>
<path d="M1462 602H1376V688H1462V602Z"/>
<path d="M1376 602H1290V688H1376V602Z"/>
<path d="M1290 602H1204V688H1290V602Z"/>
<path d="M1204 602H1118V688H1204V602Z"/>
<path d="M1118 602H1032V688H1118V602Z"/>
<path d="M1032 602H946V688H1032V602Z"/>
<path d="M946 602H860V688H946V602Z"/>
<path d="M860 602H774V688H860V602Z"/>
<path d="M774 602H688V688H774V602Z"/>
<path d="M688 602H602V688H688V602Z"/>
<path d="M602 602H516V688H602V602Z"/>
<path d="M516 602H430V688H516V602Z"/>
<path d="M430 602H344V688H430V602Z"/>
<path d="M344 602H258V688H344V602Z"/>
<path d="M258 602H172V688H258V602Z"/>
<path d="M172 602H86V688H172V602Z"/>
<path d="M86 602H0V688H86V602Z"/>
<path d="M1720 688H1634V774H1720V688Z"/>
<path d="M1634 688H1548V774H1634V688Z"/>
<path d="M1548 688H1462V774H1548V688Z"/>
<path d="M1462 688H1376V774H1462V688Z"/>
<path d="M1376 688H1290V774H1376V688Z"/>
<path d="M1290 688H1204V774H1290V688Z"/>
<path d="M1204 688H1118V774H1204V688Z"/>
<path d="M1118 688H1032V774H1118V688Z"/>
<path d="M1032 688H946V774H1032V688Z"/>
<path d="M946 688H860V774H946V688Z"/>
<path d="M860 688H774V774H860V688Z"/>
<path d="M774 688H688V774H774V688Z"/>
<path d="M688 688H602V774H688V688Z"/>
<path d="M602 688H516V774H602V688Z"/>
<path d="M516 688H430V774H516V688Z"/>
<path d="M430 688H344V774H430V688Z"/>
<path d="M344 688H258V774H344V688Z"/>
<path d="M258 688H172V774H258V688Z"/>
<path d="M172 688H86V774H172V688Z"/>
<path d="M86 688H0V774H86V688Z"/>
<path d="M1720 774H1634V860H1720V774Z"/>
<path d="M1634 774H1548V860H1634V774Z"/>
<path d="M1548 774H1462V860H1548V774Z"/>
<path d="M1462 774H1376V860H1462V774Z"/>
<path d="M1376 774H1290V860H1376V774Z"/>
<path d="M1290 774H1204V860H1290V774Z"/>
<path d="M1204 774H1118V860H1204V774Z"/>
<path d="M1118 774H1032V860H1118V774Z"/>
<path d="M1032 774H946V860H1032V774Z"/>
<path d="M946 774H860V860H946V774Z"/>
<path d="M860 774H774V860H860V774Z"/>
<path d="M774 774H688V860H774V774Z"/>
<path d="M688 774H602V860H688V774Z"/>
<path d="M602 774H516V860H602V774Z"/>
<path d="M516 774H430V860H516V774Z"/>
<path d="M430 774H344V860H430V774Z"/>
<path d="M344 774H258V860H344V774Z"/>
<path d="M258 774H172V860H258V774Z"/>
<path d="M172 774H86V860H172V774Z"/>
<path d="M86 774H0V860H86V774Z"/>
<path d="M1720 860H1634V946H1720V860Z"/>
<path d="M1634 860H1548V946H1634V860Z"/>
<path d="M1548 860H1462V946H1548V860Z"/>
<path d="M1462 860H1376V946H1462V860Z"/>
<path d="M1376 860H1290V946H1376V860Z"/>
<path d="M1290 860H1204V946H1290V860Z"/>
<path d="M1204 860H1118V946H1204V860Z"/>
<path d="M1118 860H1032V946H1118V860Z"/>
<path d="M1032 860H946V946H1032V860Z"/>
<path d="M946 860H860V946H946V860Z"/>
<path d="M860 860H774V946H860V860Z"/>
<path d="M774 860H688V946H774V860Z"/>
<path d="M688 860H602V946H688V860Z"/>
<path d="M602 860H516V946H602V860Z"/>
<path d="M516 860H430V946H516V860Z"/>
<path d="M430 860H344V946H430V860Z"/>
<path d="M344 860H258V946H344V860Z"/>
<path d="M258 860H172V946H258V860Z"/>
<path d="M172 860H86V946H172V860Z"/>
<path d="M86 860H0V946H86V860Z"/>
<path d="M1720 946H1634V1032H1720V946Z"/>
<path d="M1634 946H1548V1032H1634V946Z"/>
<path d="M1548 946H1462V1032H1548V946Z"/>
<path d="M1462 946H1376V1032H1462V946Z"/>
<path d="M1376 946H1290V1032H1376V946Z"/>
<path d="M1290 946H1204V1032H1290V946Z"/>
<path d="M1204 946H1118V1032H1204V946Z"/>
<path d="M1118 946H1032V1032H1118V946Z"/>
<path d="M1032 946H946V1032H1032V946Z"/>
<path d="M946 946H860V1032H946V946Z"/>
<path d="M860 946H774V1032H860V946Z"/>
<path d="M774 946H688V1032H774V946Z"/>
<path d="M688 946H602V1032H688V946Z"/>
<path d="M602 946H516V1032H602V946Z"/>
<path d="M516 946H430V1032H516V946Z"/>
<path d="M430 946H344V1032H430V946Z"/>
<path d="M344 946H258V1032H344V946Z"/>
<path d="M258 946H172V1032H258V946Z"/>
<path d="M172 946H86V1032H172V946Z"/>
<path d="M86 946H0V1032H86V946Z"/>
<path d="M1720 1032H1634V1118H1720V1032Z"/>
<path d="M1634 1032H1548V1118H1634V1032Z"/>
<path d="M1548 1032H1462V1118H1548V1032Z"/>
<path d="M1462 1032H1376V1118H1462V1032Z"/>
<path d="M1376 1032H1290V1118H1376V1032Z"/>
<path d="M1290 1032H1204V1118H1290V1032Z"/>
<path d="M1204 1032H1118V1118H1204V1032Z"/>
<path d="M1118 1032H1032V1118H1118V1032Z"/>
<path d="M1032 1032H946V1118H1032V1032Z"/>
<path d="M946 1032H860V1118H946V1032Z"/>
<path d="M860 1032H774V1118H860V1032Z"/>
<path d="M774 1032H688V1118H774V1032Z"/>
<path d="M688 1032H602V1118H688V1032Z"/>
<path d="M602 1032H516V1118H602V1032Z"/>
<path d="M516 1032H430V1118H516V1032Z"/>
<path d="M430 1032H344V1118H430V1032Z"/>
<path d="M344 1032H258V1118H344V1032Z"/>
<path d="M258 1032H172V1118H258V1032Z"/>
<path d="M172 1032H86V1118H172V1032Z"/>
<path d="M86 1032H0V1118H86V1032Z"/>
</mask>
<path d="M1634.5 0V86H1633.5V0H1634.5ZM1634 85.5H1720V86.5H1634V85.5ZM1548.5 0V86H1547.5V0H1548.5ZM1548 85.5H1634V86.5H1548V85.5ZM1462.5 0V86H1461.5V0H1462.5ZM1462 85.5H1548V86.5H1462V85.5ZM1376.5 0V86H1375.5V0H1376.5ZM1376 85.5H1462V86.5H1376V85.5ZM1290.5 0V86H1289.5V0H1290.5ZM1290 85.5H1376V86.5H1290V85.5ZM1204.5 0V86H1203.5V0H1204.5ZM1204 85.5H1290V86.5H1204V85.5ZM1118.5 0V86H1117.5V0H1118.5ZM1118 85.5H1204V86.5H1118V85.5ZM1032.5 0V86H1031.5V0H1032.5ZM1032 85.5H1118V86.5H1032V85.5ZM946.5 0V86H945.5V0H946.5ZM946 85.5H1032V86.5H946V85.5ZM860.5 0V86H859.5V0H860.5ZM860 85.5H946V86.5H860V85.5ZM774.5 0V86H773.5V0H774.5ZM774 85.5H860V86.5H774V85.5ZM688.5 0V86H687.5V0H688.5ZM688 85.5H774V86.5H688V85.5ZM602.5 0V86H601.5V0H602.5ZM602 85.5H688V86.5H602V85.5ZM516.5 0V86H515.5V0H516.5ZM516 85.5H602V86.5H516V85.5ZM430.5 0V86H429.5V0H430.5ZM430 85.5H516V86.5H430V85.5ZM344.5 0V86H343.5V0H344.5ZM344 85.5H430V86.5H344V85.5ZM258.5 0V86H257.5V0H258.5ZM258 85.5H344V86.5H258V85.5ZM172.5 0V86H171.5V0H172.5ZM172 85.5H258V86.5H172V85.5ZM86.5 0V86H85.5V0H86.5ZM86 85.5H172V86.5H86V85.5ZM0 85.5H86V86.5H0V85.5ZM1634.5 86V172H1633.5V86H1634.5ZM1634 171.5H1720V172.5H1634V171.5ZM1548.5 86V172H1547.5V86H1548.5ZM1548 171.5H1634V172.5H1548V171.5ZM1462.5 86V172H1461.5V86H1462.5ZM1462 171.5H1548V172.5H1462V171.5ZM1376.5 86V172H1375.5V86H1376.5ZM1376 171.5H1462V172.5H1376V171.5ZM1290.5 86V172H1289.5V86H1290.5ZM1290 171.5H1376V172.5H1290V171.5ZM1204.5 86V172H1203.5V86H1204.5ZM1204 171.5H1290V172.5H1204V171.5ZM1118.5 86V172H1117.5V86H1118.5ZM1118 171.5H1204V172.5H1118V171.5ZM1032.5 86V172H1031.5V86H1032.5ZM1032 171.5H1118V172.5H1032V171.5ZM946.5 86V172H945.5V86H946.5ZM946 171.5H1032V172.5H946V171.5ZM860.5 86V172H859.5V86H860.5ZM860 171.5H946V172.5H860V171.5ZM774.5 86V172H773.5V86H774.5ZM774 171.5H860V172.5H774V171.5ZM688.5 86V172H687.5V86H688.5ZM688 171.5H774V172.5H688V171.5ZM602.5 86V172H601.5V86H602.5ZM602 171.5H688V172.5H602V171.5ZM516.5 86V172H515.5V86H516.5ZM516 171.5H602V172.5H516V171.5ZM430.5 86V172H429.5V86H430.5ZM430 171.5H516V172.5H430V171.5ZM344.5 86V172H343.5V86H344.5ZM344 171.5H430V172.5H344V171.5ZM258.5 86V172H257.5V86H258.5ZM258 171.5H344V172.5H258V171.5ZM172.5 86V172H171.5V86H172.5ZM172 171.5H258V172.5H172V171.5ZM86.5 86V172H85.5V86H86.5ZM86 171.5H172V172.5H86V171.5ZM0 171.5H86V172.5H0V171.5ZM1634.5 172V258H1633.5V172H1634.5ZM1634 257.5H1720V258.5H1634V257.5ZM1548.5 172V258H1547.5V172H1548.5ZM1548 257.5H1634V258.5H1548V257.5ZM1462.5 172V258H1461.5V172H1462.5ZM1462 257.5H1548V258.5H1462V257.5ZM1376.5 172V258H1375.5V172H1376.5ZM1376 257.5H1462V258.5H1376V257.5ZM1290.5 172V258H1289.5V172H1290.5ZM1290 257.5H1376V258.5H1290V257.5ZM1204.5 172V258H1203.5V172H1204.5ZM1204 257.5H1290V258.5H1204V257.5ZM1118.5 172V258H1117.5V172H1118.5ZM1118 257.5H1204V258.5H1118V257.5ZM1032.5 172V258H1031.5V172H1032.5ZM1032 257.5H1118V258.5H1032V257.5ZM946.5 172V258H945.5V172H946.5ZM946 257.5H1032V258.5H946V257.5ZM860.5 172V258H859.5V172H860.5ZM860 257.5H946V258.5H860V257.5ZM774.5 172V258H773.5V172H774.5ZM774 257.5H860V258.5H774V257.5ZM688.5 172V258H687.5V172H688.5ZM688 257.5H774V258.5H688V257.5ZM602.5 172V258H601.5V172H602.5ZM602 257.5H688V258.5H602V257.5ZM516.5 172V258H515.5V172H516.5ZM516 257.5H602V258.5H516V257.5ZM430.5 172V258H429.5V172H430.5ZM430 257.5H516V258.5H430V257.5ZM344.5 172V258H343.5V172H344.5ZM344 257.5H430V258.5H344V257.5ZM258.5 172V258H257.5V172H258.5ZM258 257.5H344V258.5H258V257.5ZM172.5 172V258H171.5V172H172.5ZM172 257.5H258V258.5H172V257.5ZM86.5 172V258H85.5V172H86.5ZM86 257.5H172V258.5H86V257.5ZM0 257.5H86V258.5H0V257.5ZM1634.5 258V344H1633.5V258H1634.5ZM1634 343.5H1720V344.5H1634V343.5ZM1548.5 258V344H1547.5V258H1548.5ZM1548 343.5H1634V344.5H1548V343.5ZM1462.5 258V344H1461.5V258H1462.5ZM1462 343.5H1548V344.5H1462V343.5ZM1376.5 258V344H1375.5V258H1376.5ZM1376 343.5H1462V344.5H1376V343.5ZM1290.5 258V344H1289.5V258H1290.5ZM1290 343.5H1376V344.5H1290V343.5ZM1204.5 258V344H1203.5V258H1204.5ZM1204 343.5H1290V344.5H1204V343.5ZM1118.5 258V344H1117.5V258H1118.5ZM1118 343.5H1204V344.5H1118V343.5ZM1032.5 258V344H1031.5V258H1032.5ZM1032 343.5H1118V344.5H1032V343.5ZM946.5 258V344H945.5V258H946.5ZM946 343.5H1032V344.5H946V343.5ZM860.5 258V344H859.5V258H860.5ZM860 343.5H946V344.5H860V343.5ZM774.5 258V344H773.5V258H774.5ZM774 343.5H860V344.5H774V343.5ZM688.5 258V344H687.5V258H688.5ZM688 343.5H774V344.5H688V343.5ZM602.5 258V344H601.5V258H602.5ZM602 343.5H688V344.5H602V343.5ZM516.5 258V344H515.5V258H516.5ZM516 343.5H602V344.5H516V343.5ZM430.5 258V344H429.5V258H430.5ZM430 343.5H516V344.5H430V343.5ZM344.5 258V344H343.5V258H344.5ZM344 343.5H430V344.5H344V343.5ZM258.5 258V344H257.5V258H258.5ZM258 343.5H344V344.5H258V343.5ZM172.5 258V344H171.5V258H172.5ZM172 343.5H258V344.5H172V343.5ZM86.5 258V344H85.5V258H86.5ZM86 343.5H172V344.5H86V343.5ZM0 343.5H86V344.5H0V343.5ZM1634.5 344V430H1633.5V344H1634.5ZM1634 429.5H1720V430.5H1634V429.5ZM1548.5 344V430H1547.5V344H1548.5ZM1548 429.5H1634V430.5H1548V429.5ZM1462.5 344V430H1461.5V344H1462.5ZM1462 429.5H1548V430.5H1462V429.5ZM1376.5 344V430H1375.5V344H1376.5ZM1376 429.5H1462V430.5H1376V429.5ZM1290.5 344V430H1289.5V344H1290.5ZM1290 429.5H1376V430.5H1290V429.5ZM1204.5 344V430H1203.5V344H1204.5ZM1204 429.5H1290V430.5H1204V429.5ZM1118.5 344V430H1117.5V344H1118.5ZM1118 429.5H1204V430.5H1118V429.5ZM1032.5 344V430H1031.5V344H1032.5ZM1032 429.5H1118V430.5H1032V429.5ZM946.5 344V430H945.5V344H946.5ZM946 429.5H1032V430.5H946V429.5ZM860.5 344V430H859.5V344H860.5ZM860 429.5H946V430.5H860V429.5ZM774.5 344V430H773.5V344H774.5ZM774 429.5H860V430.5H774V429.5ZM688.5 344V430H687.5V344H688.5ZM688 429.5H774V430.5H688V429.5ZM602.5 344V430H601.5V344H602.5ZM602 429.5H688V430.5H602V429.5ZM516.5 344V430H515.5V344H516.5ZM516 429.5H602V430.5H516V429.5ZM430.5 344V430H429.5V344H430.5ZM430 429.5H516V430.5H430V429.5ZM344.5 344V430H343.5V344H344.5ZM344 429.5H430V430.5H344V429.5ZM258.5 344V430H257.5V344H258.5ZM258 429.5H344V430.5H258V429.5ZM172.5 344V430H171.5V344H172.5ZM172 429.5H258V430.5H172V429.5ZM86.5 344V430H85.5V344H86.5ZM86 429.5H172V430.5H86V429.5ZM0 429.5H86V430.5H0V429.5ZM1634.5 430V516H1633.5V430H1634.5ZM1634 515.5H1720V516.5H1634V515.5ZM1548.5 430V516H1547.5V430H1548.5ZM1548 515.5H1634V516.5H1548V515.5ZM1462.5 430V516H1461.5V430H1462.5ZM1462 515.5H1548V516.5H1462V515.5ZM1376.5 430V516H1375.5V430H1376.5ZM1376 515.5H1462V516.5H1376V515.5ZM1290.5 430V516H1289.5V430H1290.5ZM1290 515.5H1376V516.5H1290V515.5ZM1204.5 430V516H1203.5V430H1204.5ZM1204 515.5H1290V516.5H1204V515.5ZM1118.5 430V516H1117.5V430H1118.5ZM1118 515.5H1204V516.5H1118V515.5ZM1032.5 430V516H1031.5V430H1032.5ZM1032 515.5H1118V516.5H1032V515.5ZM946.5 430V516H945.5V430H946.5ZM946 515.5H1032V516.5H946V515.5ZM860.5 430V516H859.5V430H860.5ZM860 515.5H946V516.5H860V515.5ZM774.5 430V516H773.5V430H774.5ZM774 515.5H860V516.5H774V515.5ZM688.5 430V516H687.5V430H688.5ZM688 515.5H774V516.5H688V515.5ZM602.5 430V516H601.5V430H602.5ZM602 515.5H688V516.5H602V515.5ZM516.5 430V516H515.5V430H516.5ZM516 515.5H602V516.5H516V515.5ZM430.5 430V516H429.5V430H430.5ZM430 515.5H516V516.5H430V515.5ZM344.5 430V516H343.5V430H344.5ZM344 515.5H430V516.5H344V515.5ZM258.5 430V516H257.5V430H258.5ZM258 515.5H344V516.5H258V515.5ZM172.5 430V516H171.5V430H172.5ZM172 515.5H258V516.5H172V515.5ZM86.5 430V516H85.5V430H86.5ZM86 515.5H172V516.5H86V515.5ZM0 515.5H86V516.5H0V515.5ZM1634.5 516V602H1633.5V516H1634.5ZM1634 601.5H1720V602.5H1634V601.5ZM1548.5 516V602H1547.5V516H1548.5ZM1548 601.5H1634V602.5H1548V601.5ZM1462.5 516V602H1461.5V516H1462.5ZM1462 601.5H1548V602.5H1462V601.5ZM1376.5 516V602H1375.5V516H1376.5ZM1376 601.5H1462V602.5H1376V601.5ZM1290.5 516V602H1289.5V516H1290.5ZM1290 601.5H1376V602.5H1290V601.5ZM1204.5 516V602H1203.5V516H1204.5ZM1204 601.5H1290V602.5H1204V601.5ZM1118.5 516V602H1117.5V516H1118.5ZM1118 601.5H1204V602.5H1118V601.5ZM1032.5 516V602H1031.5V516H1032.5ZM1032 601.5H1118V602.5H1032V601.5ZM946.5 516V602H945.5V516H946.5ZM946 601.5H1032V602.5H946V601.5ZM860.5 516V602H859.5V516H860.5ZM860 601.5H946V602.5H860V601.5ZM774.5 516V602H773.5V516H774.5ZM774 601.5H860V602.5H774V601.5ZM688.5 516V602H687.5V516H688.5ZM688 601.5H774V602.5H688V601.5ZM602.5 516V602H601.5V516H602.5ZM602 601.5H688V602.5H602V601.5ZM516.5 516V602H515.5V516H516.5ZM516 601.5H602V602.5H516V601.5ZM430.5 516V602H429.5V516H430.5ZM430 601.5H516V602.5H430V601.5ZM344.5 516V602H343.5V516H344.5ZM344 601.5H430V602.5H344V601.5ZM258.5 516V602H257.5V516H258.5ZM258 601.5H344V602.5H258V601.5ZM172.5 516V602H171.5V516H172.5ZM172 601.5H258V602.5H172V601.5ZM86.5 516V602H85.5V516H86.5ZM86 601.5H172V602.5H86V601.5ZM0 601.5H86V602.5H0V601.5ZM1634.5 602V688H1633.5V602H1634.5ZM1634 687.5H1720V688.5H1634V687.5ZM1548.5 602V688H1547.5V602H1548.5ZM1548 687.5H1634V688.5H1548V687.5ZM1462.5 602V688H1461.5V602H1462.5ZM1462 687.5H1548V688.5H1462V687.5ZM1376.5 602V688H1375.5V602H1376.5ZM1376 687.5H1462V688.5H1376V687.5ZM1290.5 602V688H1289.5V602H1290.5ZM1290 687.5H1376V688.5H1290V687.5ZM1204.5 602V688H1203.5V602H1204.5ZM1204 687.5H1290V688.5H1204V687.5ZM1118.5 602V688H1117.5V602H1118.5ZM1118 687.5H1204V688.5H1118V687.5ZM1032.5 602V688H1031.5V602H1032.5ZM1032 687.5H1118V688.5H1032V687.5ZM946.5 602V688H945.5V602H946.5ZM946 687.5H1032V688.5H946V687.5ZM860.5 602V688H859.5V602H860.5ZM860 687.5H946V688.5H860V687.5ZM774.5 602V688H773.5V602H774.5ZM774 687.5H860V688.5H774V687.5ZM688.5 602V688H687.5V602H688.5ZM688 687.5H774V688.5H688V687.5ZM602.5 602V688H601.5V602H602.5ZM602 687.5H688V688.5H602V687.5ZM516.5 602V688H515.5V602H516.5ZM516 687.5H602V688.5H516V687.5ZM430.5 602V688H429.5V602H430.5ZM430 687.5H516V688.5H430V687.5ZM344.5 602V688H343.5V602H344.5ZM344 687.5H430V688.5H344V687.5ZM258.5 602V688H257.5V602H258.5ZM258 687.5H344V688.5H258V687.5ZM172.5 602V688H171.5V602H172.5ZM172 687.5H258V688.5H172V687.5ZM86.5 602V688H85.5V602H86.5ZM86 687.5H172V688.5H86V687.5ZM0 687.5H86V688.5H0V687.5ZM1634.5 688V774H1633.5V688H1634.5ZM1634 773.5H1720V774.5H1634V773.5ZM1548.5 688V774H1547.5V688H1548.5ZM1548 773.5H1634V774.5H1548V773.5ZM1462.5 688V774H1461.5V688H1462.5ZM1462 773.5H1548V774.5H1462V773.5ZM1376.5 688V774H1375.5V688H1376.5ZM1376 773.5H1462V774.5H1376V773.5ZM1290.5 688V774H1289.5V688H1290.5ZM1290 773.5H1376V774.5H1290V773.5ZM1204.5 688V774H1203.5V688H1204.5ZM1204 773.5H1290V774.5H1204V773.5ZM1118.5 688V774H1117.5V688H1118.5ZM1118 773.5H1204V774.5H1118V773.5ZM1032.5 688V774H1031.5V688H1032.5ZM1032 773.5H1118V774.5H1032V773.5ZM946.5 688V774H945.5V688H946.5ZM946 773.5H1032V774.5H946V773.5ZM860.5 688V774H859.5V688H860.5ZM860 773.5H946V774.5H860V773.5ZM774.5 688V774H773.5V688H774.5ZM774 773.5H860V774.5H774V773.5ZM688.5 688V774H687.5V688H688.5ZM688 773.5H774V774.5H688V773.5ZM602.5 688V774H601.5V688H602.5ZM602 773.5H688V774.5H602V773.5ZM516.5 688V774H515.5V688H516.5ZM516 773.5H602V774.5H516V773.5ZM430.5 688V774H429.5V688H430.5ZM430 773.5H516V774.5H430V773.5ZM344.5 688V774H343.5V688H344.5ZM344 773.5H430V774.5H344V773.5ZM258.5 688V774H257.5V688H258.5ZM258 773.5H344V774.5H258V773.5ZM172.5 688V774H171.5V688H172.5ZM172 773.5H258V774.5H172V773.5ZM86.5 688V774H85.5V688H86.5ZM86 773.5H172V774.5H86V773.5ZM0 773.5H86V774.5H0V773.5ZM1634.5 774V860H1633.5V774H1634.5ZM1634 859.5H1720V860.5H1634V859.5ZM1548.5 774V860H1547.5V774H1548.5ZM1548 859.5H1634V860.5H1548V859.5ZM1462.5 774V860H1461.5V774H1462.5ZM1462 859.5H1548V860.5H1462V859.5ZM1376.5 774V860H1375.5V774H1376.5ZM1376 859.5H1462V860.5H1376V859.5ZM1290.5 774V860H1289.5V774H1290.5ZM1290 859.5H1376V860.5H1290V859.5ZM1204.5 774V860H1203.5V774H1204.5ZM1204 859.5H1290V860.5H1204V859.5ZM1118.5 774V860H1117.5V774H1118.5ZM1118 859.5H1204V860.5H1118V859.5ZM1032.5 774V860H1031.5V774H1032.5ZM1032 859.5H1118V860.5H1032V859.5ZM946.5 774V860H945.5V774H946.5ZM946 859.5H1032V860.5H946V859.5ZM860.5 774V860H859.5V774H860.5ZM860 859.5H946V860.5H860V859.5ZM774.5 774V860H773.5V774H774.5ZM774 859.5H860V860.5H774V859.5ZM688.5 774V860H687.5V774H688.5ZM688 859.5H774V860.5H688V859.5ZM602.5 774V860H601.5V774H602.5ZM602 859.5H688V860.5H602V859.5ZM516.5 774V860H515.5V774H516.5ZM516 859.5H602V860.5H516V859.5ZM430.5 774V860H429.5V774H430.5ZM430 859.5H516V860.5H430V859.5ZM344.5 774V860H343.5V774H344.5ZM344 859.5H430V860.5H344V859.5ZM258.5 774V860H257.5V774H258.5ZM258 859.5H344V860.5H258V859.5ZM172.5 774V860H171.5V774H172.5ZM172 859.5H258V860.5H172V859.5ZM86.5 774V860H85.5V774H86.5ZM86 859.5H172V860.5H86V859.5ZM0 859.5H86V860.5H0V859.5ZM1634.5 860V946H1633.5V860H1634.5ZM1634 945.5H1720V946.5H1634V945.5ZM1548.5 860V946H1547.5V860H1548.5ZM1548 945.5H1634V946.5H1548V945.5ZM1462.5 860V946H1461.5V860H1462.5ZM1462 945.5H1548V946.5H1462V945.5ZM1376.5 860V946H1375.5V860H1376.5ZM1376 945.5H1462V946.5H1376V945.5ZM1290.5 860V946H1289.5V860H1290.5ZM1290 945.5H1376V946.5H1290V945.5ZM1204.5 860V946H1203.5V860H1204.5ZM1204 945.5H1290V946.5H1204V945.5ZM1118.5 860V946H1117.5V860H1118.5ZM1118 945.5H1204V946.5H1118V945.5ZM1032.5 860V946H1031.5V860H1032.5ZM1032 945.5H1118V946.5H1032V945.5ZM946.5 860V946H945.5V860H946.5ZM946 945.5H1032V946.5H946V945.5ZM860.5 860V946H859.5V860H860.5ZM860 945.5H946V946.5H860V945.5ZM774.5 860V946H773.5V860H774.5ZM774 945.5H860V946.5H774V945.5ZM688.5 860V946H687.5V860H688.5ZM688 945.5H774V946.5H688V945.5ZM602.5 860V946H601.5V860H602.5ZM602 945.5H688V946.5H602V945.5ZM516.5 860V946H515.5V860H516.5ZM516 945.5H602V946.5H516V945.5ZM430.5 860V946H429.5V860H430.5ZM430 945.5H516V946.5H430V945.5ZM344.5 860V946H343.5V860H344.5ZM344 945.5H430V946.5H344V945.5ZM258.5 860V946H257.5V860H258.5ZM258 945.5H344V946.5H258V945.5ZM172.5 860V946H171.5V860H172.5ZM172 945.5H258V946.5H172V945.5ZM86.5 860V946H85.5V860H86.5ZM86 945.5H172V946.5H86V945.5ZM0 945.5H86V946.5H0V945.5ZM1634.5 946V1032H1633.5V946H1634.5ZM1634 1031.5H1720V1032.5H1634V1031.5ZM1548.5 946V1032H1547.5V946H1548.5ZM1548 1031.5H1634V1032.5H1548V1031.5ZM1462.5 946V1032H1461.5V946H1462.5ZM1462 1031.5H1548V1032.5H1462V1031.5ZM1376.5 946V1032H1375.5V946H1376.5ZM1376 1031.5H1462V1032.5H1376V1031.5ZM1290.5 946V1032H1289.5V946H1290.5ZM1290 1031.5H1376V1032.5H1290V1031.5ZM1204.5 946V1032H1203.5V946H1204.5ZM1204 1031.5H1290V1032.5H1204V1031.5ZM1118.5 946V1032H1117.5V946H1118.5ZM1118 1031.5H1204V1032.5H1118V1031.5ZM1032.5 946V1032H1031.5V946H1032.5ZM1032 1031.5H1118V1032.5H1032V1031.5ZM946.5 946V1032H945.5V946H946.5ZM946 1031.5H1032V1032.5H946V1031.5ZM860.5 946V1032H859.5V946H860.5ZM860 1031.5H946V1032.5H860V1031.5ZM774.5 946V1032H773.5V946H774.5ZM774 1031.5H860V1032.5H774V1031.5ZM688.5 946V1032H687.5V946H688.5ZM688 1031.5H774V1032.5H688V1031.5ZM602.5 946V1032H601.5V946H602.5ZM602 1031.5H688V1032.5H602V1031.5ZM516.5 946V1032H515.5V946H516.5ZM516 1031.5H602V1032.5H516V1031.5ZM430.5 946V1032H429.5V946H430.5ZM430 1031.5H516V1032.5H430V1031.5ZM344.5 946V1032H343.5V946H344.5ZM344 1031.5H430V1032.5H344V1031.5ZM258.5 946V1032H257.5V946H258.5ZM258 1031.5H344V1032.5H258V1031.5ZM172.5 946V1032H171.5V946H172.5ZM172 1031.5H258V1032.5H172V1031.5ZM86.5 946V1032H85.5V946H86.5ZM86 1031.5H172V1032.5H86V1031.5ZM0 1031.5H86V1032.5H0V1031.5ZM1634.5 1032V1118H1633.5V1032H1634.5ZM1548.5 1032V1118H1547.5V1032H1548.5ZM1462.5 1032V1118H1461.5V1032H1462.5ZM1376.5 1032V1118H1375.5V1032H1376.5ZM1290.5 1032V1118H1289.5V1032H1290.5ZM1204.5 1032V1118H1203.5V1032H1204.5ZM1118.5 1032V1118H1117.5V1032H1118.5ZM1032.5 1032V1118H1031.5V1032H1032.5ZM946.5 1032V1118H945.5V1032H946.5ZM860.5 1032V1118H859.5V1032H860.5ZM774.5 1032V1118H773.5V1032H774.5ZM688.5 1032V1118H687.5V1032H688.5ZM602.5 1032V1118H601.5V1032H602.5ZM516.5 1032V1118H515.5V1032H516.5ZM430.5 1032V1118H429.5V1032H430.5ZM344.5 1032V1118H343.5V1032H344.5ZM258.5 1032V1118H257.5V1032H258.5ZM172.5 1032V1118H171.5V1032H172.5ZM86.5 1032V1118H85.5V1032H86.5ZM1720 0V-1H1721V0H1720ZM0 0H-1V-1H0V0ZM1720 1118H1721V1119H1720V1118ZM0 1118V1119H-1V1118H0ZM1720 1H1634V-1H1720V1ZM1719 86V0H1721V86H1719ZM1634 1H1548V-1H1634V1ZM1548 1H1462V-1H1548V1ZM1462 1H1376V-1H1462V1ZM1376 1H1290V-1H1376V1ZM1290 1H1204V-1H1290V1ZM1204 1H1118V-1H1204V1ZM1118 1H1032V-1H1118V1ZM1032 1H946V-1H1032V1ZM946 1H860V-1H946V1ZM860 1H774V-1H860V1ZM774 1H688V-1H774V1ZM688 1H602V-1H688V1ZM602 1H516V-1H602V1ZM516 1H430V-1H516V1ZM430 1H344V-1H430V1ZM344 1H258V-1H344V1ZM258 1H172V-1H258V1ZM172 1H86V-1H172V1ZM86 1H0V-1H86V1ZM1 0V86H-1V0H1ZM1719 172V86H1721V172H1719ZM1 86V172H-1V86H1ZM1719 258V172H1721V258H1719ZM1 172V258H-1V172H1ZM1719 344V258H1721V344H1719ZM1 258V344H-1V258H1ZM1719 430V344H1721V430H1719ZM1 344V430H-1V344H1ZM1719 516V430H1721V516H1719ZM1 430V516H-1V430H1ZM1719 602V516H1721V602H1719ZM1 516V602H-1V516H1ZM1719 688V602H1721V688H1719ZM1 602V688H-1V602H1ZM1719 774V688H1721V774H1719ZM1 688V774H-1V688H1ZM1719 860V774H1721V860H1719ZM1 774V860H-1V774H1ZM1719 946V860H1721V946H1719ZM1 860V946H-1V860H1ZM1719 1032V946H1721V1032H1719ZM1 946V1032H-1V946H1ZM1634 1117H1720V1119H1634V1117ZM1719 1118V1032H1721V1118H1719ZM1548 1117H1634V1119H1548V1117ZM1462 1117H1548V1119H1462V1117ZM1376 1117H1462V1119H1376V1117ZM1290 1117H1376V1119H1290V1117ZM1204 1117H1290V1119H1204V1117ZM1118 1117H1204V1119H1118V1117ZM1032 1117H1118V1119H1032V1117ZM946 1117H1032V1119H946V1117ZM860 1117H946V1119H860V1117ZM774 1117H860V1119H774V1117ZM688 1117H774V1119H688V1117ZM602 1117H688V1119H602V1117ZM516 1117H602V1119H516V1117ZM430 1117H516V1119H430V1117ZM344 1117H430V1119H344V1117ZM258 1117H344V1119H258V1117ZM172 1117H258V1119H172V1117ZM86 1117H172V1119H86V1117ZM1 1032V1118H-1V1032H1ZM0 1117H86V1119H0V1117Z" fill="url(#paint0_radial_493_4383)" fill-opacity="0.2" mask="url(#path-1-inside-1_493_4383)"/>
<defs>
<radialGradient id="paint0_radial_493_4383" cx="0" cy="0" r="1" gradientUnits="userSpaceOnUse" gradientTransform="translate(-6.65685e-05 478) rotate(11.0465) scale(746.328 647.299)">
<stop stop-color="#BFBFBF"/>
<stop offset="1" stop-color="#595959" stop-opacity="0"/>
</radialGradient>
</defs>
</svg>
