<svg width="221" height="142" viewBox="0 0 221 142" fill="none" xmlns="http://www.w3.org/2000/svg">
<g opacity="0.53">
<path d="M152.634 6.14746H145.008V140.655H152.634V6.14746Z" fill="url(#paint0_linear_493_3804)"/>
</g>
<path d="M152.634 136.842V74.0747C152.634 71.9688 150.927 70.2617 148.821 70.2617C146.715 70.2617 145.008 71.9688 145.008 74.0747V136.842C145.008 138.947 146.715 140.655 148.821 140.655C150.927 140.655 152.634 138.947 152.634 136.842Z" fill="url(#paint1_linear_493_3804)"/>
<g opacity="0.53">
<path d="M152.634 6.14746H145.008V140.655H152.634V6.14746Z" fill="url(#paint2_linear_493_3804)"/>
</g>
<path d="M152.634 136.842V74.0747C152.634 71.9688 150.927 70.2617 148.821 70.2617C146.715 70.2617 145.008 71.9688 145.008 74.0747V136.842C145.008 138.947 146.715 140.655 148.821 140.655C150.927 140.655 152.634 138.947 152.634 136.842Z" fill="url(#paint3_linear_493_3804)"/>
<g opacity="0.53">
<path d="M169.626 6H162V140.507H169.626V6Z" fill="url(#paint4_linear_493_3804)"/>
</g>
<path d="M169.626 136.694V73.9272C169.626 71.8214 167.919 70.1143 165.813 70.1143C163.707 70.1143 162 71.8214 162 73.9272V136.694C162 138.8 163.707 140.507 165.813 140.507C167.919 140.507 169.626 138.8 169.626 136.694Z" fill="url(#paint5_linear_493_3804)"/>
<g opacity="0.53">
<path d="M186.626 6H179V140.507H186.626V6Z" fill="url(#paint6_linear_493_3804)"/>
</g>
<path d="M186.626 136.694V73.9272C186.626 71.8214 184.919 70.1143 182.813 70.1143C180.707 70.1143 179 71.8214 179 73.9272V136.694C179 138.8 180.707 140.507 182.813 140.507C184.919 140.507 186.626 138.8 186.626 136.694Z" fill="url(#paint7_linear_493_3804)"/>
<g opacity="0.53">
<path d="M203.626 6H196V140.507H203.626V6Z" fill="url(#paint8_linear_493_3804)"/>
</g>
<path d="M203.626 136.694V73.9272C203.626 71.8214 201.919 70.1143 199.813 70.1143C197.707 70.1143 196 71.8214 196 73.9272V136.694C196 138.8 197.707 140.507 199.813 140.507C201.919 140.507 203.626 138.8 203.626 136.694Z" fill="url(#paint9_linear_493_3804)"/>
<g opacity="0.53">
<path d="M220.626 6H213V140.507H220.626V6Z" fill="url(#paint10_linear_493_3804)"/>
</g>
<path d="M220.626 136.694V73.9272C220.626 71.8214 218.919 70.1143 216.813 70.1143C214.707 70.1143 213 71.8214 213 73.9272V136.694C213 138.8 214.707 140.507 216.813 140.507C218.919 140.507 220.626 138.8 220.626 136.694Z" fill="url(#paint11_linear_493_3804)"/>
<path opacity="0.57" d="M19.2292 0.000976562C8.99746 0.000976562 0.703125 8.29532 0.703125 18.527C0.703125 28.7587 8.99746 37.0531 19.2292 37.0531C29.4609 37.0531 37.7552 28.7587 37.7552 18.527C37.7552 8.29532 29.4609 0.000976562 19.2292 0.000976562ZM19.2292 29.0816C13.4 29.0816 8.67442 24.3561 8.67442 18.5269C8.67442 12.6977 13.4 7.97215 19.2292 7.97215C25.0582 7.97215 29.7838 12.6977 29.7838 18.5269C29.7838 24.3562 25.0582 29.0816 19.2292 29.0816Z" fill="url(#paint12_linear_493_3804)"/>
<path opacity="0.57" d="M19.2292 0.000976562C8.99746 0.000976562 0.703125 8.29532 0.703125 18.527C0.703125 28.7587 8.99746 37.0531 19.2292 37.0531C29.4609 37.0531 37.7552 28.7587 37.7552 18.527C37.7552 8.29532 29.4609 0.000976562 19.2292 0.000976562ZM19.2292 29.0816C13.4 29.0816 8.67442 24.3561 8.67442 18.5269C8.67442 12.6977 13.4 7.97215 19.2292 7.97215C25.0582 7.97215 29.7838 12.6977 29.7838 18.5269C29.7838 24.3562 25.0582 29.0816 19.2292 29.0816Z" fill="url(#paint13_linear_493_3804)"/>
<path opacity="0.57" d="M63.526 0.000976562C53.2943 0.000976562 45 8.29532 45 18.527C45 28.7587 53.2943 37.0531 63.526 37.0531C73.7577 37.0531 82.0521 28.7587 82.0521 18.527C82.0521 8.29532 73.7577 0.000976562 63.526 0.000976562ZM63.526 29.0816C57.6968 29.0816 52.9713 24.3561 52.9713 18.5269C52.9713 12.6977 57.6968 7.97215 63.526 7.97215C69.3551 7.97215 74.0807 12.6977 74.0807 18.5269C74.0807 24.3562 69.3551 29.0816 63.526 29.0816Z" fill="url(#paint14_linear_493_3804)"/>
<path opacity="0.57" d="M108.526 0.000976562C98.2943 0.000976562 90 8.29532 90 18.527C90 28.7587 98.2943 37.0531 108.526 37.0531C118.758 37.0531 127.052 28.7587 127.052 18.527C127.052 8.29532 118.758 0.000976562 108.526 0.000976562ZM108.526 29.0816C102.697 29.0816 97.9713 24.3561 97.9713 18.5269C97.9713 12.6977 102.697 7.97215 108.526 7.97215C114.355 7.97215 119.081 12.6977 119.081 18.5269C119.081 24.3562 114.355 29.0816 108.526 29.0816Z" fill="url(#paint15_linear_493_3804)"/>
<path opacity="0.44" d="M123.785 141.399L4.94663 140.507C2.60216 140.489 0.710938 138.584 0.710938 136.239V75.1819C0.710938 72.8248 2.62166 70.9141 4.97862 70.9141H123.817C126.174 70.9141 128.085 72.8248 128.085 75.1819V137.132C128.085 139.501 126.155 141.417 123.785 141.399Z" fill="#262626"/>
<path opacity="0.44" d="M105.352 98.4817L90.0702 82.3252L68.1588 106.157L52.6978 89.4748L38.1974 105.866L27.0779 92.3573L5.16406 115.172V131.671C5.16406 133.852 6.92306 135.624 9.10345 135.64L119.632 136.471C121.835 136.487 123.631 134.705 123.631 132.501V87.6178L105.352 98.4817Z" fill="url(#paint16_linear_493_3804)"/>
<g opacity="0.48">
<path d="M35.0445 60.7487H2.46754C1.10483 60.7487 0 61.5179 0 62.467C0 63.4161 1.10471 64.1855 2.46754 64.1855H35.0445C36.4073 64.1855 37.512 63.4162 37.512 62.467C37.512 61.5179 36.4073 60.7487 35.0445 60.7487Z" fill="white"/>
<path d="M35.0445 53.1396H2.46754C1.10483 53.1396 0 53.9091 0 54.8581C0 55.8072 1.10471 56.5766 2.46754 56.5766H35.0445C36.4073 56.5766 37.512 55.8072 37.512 54.8581C37.512 53.9091 36.4073 53.1396 35.0445 53.1396Z" fill="white"/>
<path d="M35.0445 45.531H2.46754C1.10483 45.531 0 46.3003 0 47.2494C0 48.1984 1.10471 48.9678 2.46754 48.9678H35.0445C36.4073 48.9678 37.512 48.1985 37.512 47.2494C37.512 46.3004 36.4073 45.531 35.0445 45.531Z" fill="white"/>
</g>
<g opacity="0.48">
<path d="M80.3257 60.7489H47.7488C46.3861 60.7489 45.2812 61.5182 45.2812 62.4672C45.2812 63.4163 46.3859 64.1857 47.7488 64.1857H80.3257C81.6884 64.1857 82.7932 63.4164 82.7932 62.4672C82.7932 61.5182 81.6884 60.7489 80.3257 60.7489Z" fill="white"/>
<path d="M80.3257 53.1399H47.7488C46.3861 53.1399 45.2812 53.9093 45.2812 54.8584C45.2812 55.8074 46.3859 56.5768 47.7488 56.5768H80.3257C81.6884 56.5768 82.7932 55.8074 82.7932 54.8584C82.7932 53.9093 81.6884 53.1399 80.3257 53.1399Z" fill="white"/>
<path d="M80.3257 45.5312H47.7488C46.3861 45.5312 45.2812 46.3005 45.2812 47.2496C45.2812 48.1987 46.3859 48.9681 47.7488 48.9681H80.3257C81.6884 48.9681 82.7932 48.1988 82.7932 47.2496C82.7932 46.3007 81.6884 45.5312 80.3257 45.5312Z" fill="white"/>
</g>
<g opacity="0.48">
<path d="M125.623 60.7489H93.0456C91.6828 60.7489 90.5781 61.5182 90.5781 62.4672C90.5781 63.4163 91.6828 64.1857 93.0456 64.1857H125.623C126.985 64.1857 128.09 63.4164 128.09 62.4672C128.09 61.5182 126.985 60.7489 125.623 60.7489Z" fill="white"/>
<path d="M125.623 53.1399H93.0456C91.6828 53.1399 90.5781 53.9093 90.5781 54.8584C90.5781 55.8074 91.6828 56.5768 93.0456 56.5768H125.623C126.985 56.5768 128.09 55.8074 128.09 54.8584C128.09 53.9093 126.985 53.1399 125.623 53.1399Z" fill="white"/>
<path d="M125.623 45.5312H93.0456C91.6828 45.5312 90.5781 46.3005 90.5781 47.2496C90.5781 48.1987 91.6828 48.9681 93.0456 48.9681H125.623C126.985 48.9681 128.09 48.1988 128.09 47.2496C128.09 46.3007 126.985 45.5312 125.623 45.5312Z" fill="white"/>
</g>
<defs>
<linearGradient id="paint0_linear_493_3804" x1="148.821" y1="6.14746" x2="148.821" y2="140.655" gradientUnits="userSpaceOnUse">
<stop stop-color="#5B5B5B"/>
<stop offset="1" stop-color="#252525"/>
</linearGradient>
<linearGradient id="paint1_linear_493_3804" x1="153" y1="143" x2="153" y2="72" gradientUnits="userSpaceOnUse">
<stop stop-color="#3C83F1" stop-opacity="0"/>
<stop offset="1" stop-color="#3C83F1"/>
</linearGradient>
<linearGradient id="paint2_linear_493_3804" x1="148.821" y1="6.14746" x2="148.821" y2="140.655" gradientUnits="userSpaceOnUse">
<stop stop-color="#5B5B5B"/>
<stop offset="1" stop-color="#252525"/>
</linearGradient>
<linearGradient id="paint3_linear_493_3804" x1="153" y1="143" x2="153" y2="72" gradientUnits="userSpaceOnUse">
<stop stop-color="#3C83F1" stop-opacity="0"/>
<stop offset="1" stop-color="#3C83F1"/>
</linearGradient>
<linearGradient id="paint4_linear_493_3804" x1="165.813" y1="6" x2="165.813" y2="140.507" gradientUnits="userSpaceOnUse">
<stop stop-color="#5B5B5B"/>
<stop offset="1" stop-color="#252525"/>
</linearGradient>
<linearGradient id="paint5_linear_493_3804" x1="169.992" y1="142.853" x2="169.992" y2="71.8525" gradientUnits="userSpaceOnUse">
<stop stop-color="#3C83F1" stop-opacity="0"/>
<stop offset="1" stop-color="#3C83F1"/>
</linearGradient>
<linearGradient id="paint6_linear_493_3804" x1="182.813" y1="6" x2="182.813" y2="140.507" gradientUnits="userSpaceOnUse">
<stop stop-color="#5B5B5B"/>
<stop offset="1" stop-color="#252525"/>
</linearGradient>
<linearGradient id="paint7_linear_493_3804" x1="186.992" y1="142.853" x2="186.992" y2="71.8525" gradientUnits="userSpaceOnUse">
<stop stop-color="#3C83F1" stop-opacity="0"/>
<stop offset="1" stop-color="#3C83F1"/>
</linearGradient>
<linearGradient id="paint8_linear_493_3804" x1="199.813" y1="6" x2="199.813" y2="140.507" gradientUnits="userSpaceOnUse">
<stop stop-color="#5B5B5B"/>
<stop offset="1" stop-color="#252525"/>
</linearGradient>
<linearGradient id="paint9_linear_493_3804" x1="203.992" y1="142.853" x2="203.992" y2="71.8525" gradientUnits="userSpaceOnUse">
<stop stop-color="#3C83F1" stop-opacity="0"/>
<stop offset="1" stop-color="#3C83F1"/>
</linearGradient>
<linearGradient id="paint10_linear_493_3804" x1="216.813" y1="6" x2="216.813" y2="140.507" gradientUnits="userSpaceOnUse">
<stop stop-color="#5B5B5B"/>
<stop offset="1" stop-color="#252525"/>
</linearGradient>
<linearGradient id="paint11_linear_493_3804" x1="220.992" y1="142.853" x2="220.992" y2="71.8525" gradientUnits="userSpaceOnUse">
<stop stop-color="#3C83F1" stop-opacity="0"/>
<stop offset="1" stop-color="#3C83F1"/>
</linearGradient>
<linearGradient id="paint12_linear_493_3804" x1="19.2292" y1="0.000976562" x2="19.2292" y2="37.0531" gradientUnits="userSpaceOnUse">
<stop stop-color="#434343"/>
<stop offset="1" stop-color="#A9A9A9"/>
</linearGradient>
<linearGradient id="paint13_linear_493_3804" x1="19.2292" y1="0.000976562" x2="19.2292" y2="37.0531" gradientUnits="userSpaceOnUse">
<stop stop-color="#434343"/>
<stop offset="1" stop-color="#A9A9A9"/>
</linearGradient>
<linearGradient id="paint14_linear_493_3804" x1="63.526" y1="0.000976562" x2="63.526" y2="37.0531" gradientUnits="userSpaceOnUse">
<stop stop-color="#434343"/>
<stop offset="1" stop-color="#A9A9A9"/>
</linearGradient>
<linearGradient id="paint15_linear_493_3804" x1="108.526" y1="0.000976562" x2="108.526" y2="37.0531" gradientUnits="userSpaceOnUse">
<stop stop-color="#434343"/>
<stop offset="1" stop-color="#A9A9A9"/>
</linearGradient>
<linearGradient id="paint16_linear_493_3804" x1="64.3974" y1="82.3252" x2="64.3974" y2="136.471" gradientUnits="userSpaceOnUse">
<stop stop-color="#454545"/>
<stop offset="1" stop-color="#222222"/>
</linearGradient>
</defs>
</svg>
