<svg width="104" height="103" viewBox="0 0 104 103" fill="none" xmlns="http://www.w3.org/2000/svg">
<path fill-rule="evenodd" clip-rule="evenodd" d="M45.8436 6.49537C34.6651 -7.83942 12.2014 5.47747 19.4129 22.164C22.9506 30.3499 18.8623 39.8248 10.4796 42.8672C-6.60791 49.0689 -0.88447 74.5482 17.2138 72.8461C26.0923 72.0111 33.8401 78.8272 34.1432 87.7398C34.761 105.907 60.762 108.338 64.7359 90.5992C66.6853 81.8972 75.562 76.6349 84.132 79.1008C101.601 84.1273 111.947 60.1499 96.3051 50.889C88.6315 46.3459 86.3698 36.2775 91.3633 28.8889C101.542 13.8279 81.9353 -3.42121 68.294 8.59375C61.6019 14.488 51.3274 13.5276 45.8436 6.49537ZM59.7382 60.0613C65.8368 56.4459 67.8498 48.5712 64.2345 42.4727C60.6191 36.3741 52.7444 34.361 46.6458 37.9764C40.5473 41.5917 38.5342 49.4664 42.1495 55.565C45.7649 61.6636 53.6396 63.6766 59.7382 60.0613Z" fill="url(#paint0_linear_493_5986)"/>
<defs>
<linearGradient id="paint0_linear_493_5986" x1="25.732" y1="2.69668" x2="76.9934" y2="89.1674" gradientUnits="userSpaceOnUse">
<stop stop-color="#94C2FF"/>
<stop offset="0.33" stop-color="#ABCFFF"/>
<stop offset="0.555" stop-color="#055ACA"/>
<stop offset="1" stop-color="#59A1FF"/>
</linearGradient>
</defs>
</svg>
