<svg width="31" height="30" viewBox="0 0 31 30" fill="none" xmlns="http://www.w3.org/2000/svg">
<path fill-rule="evenodd" clip-rule="evenodd" d="M21.1562 2.5H21.2413C22.3463 2.5 23.2375 2.5 23.9538 2.56875C24.6938 2.63875 25.3387 2.7875 25.9175 3.1425C26.505 3.5025 26.9975 3.995 27.3575 4.5825C27.7125 5.16125 27.8612 5.80625 27.9325 6.545C28 7.2625 28 8.155 28 9.25875V9.34625C28 10.0713 28 10.6763 27.9537 11.1688C27.9037 11.6838 27.7987 12.1625 27.5287 12.6025C27.2662 13.0325 26.9037 13.3937 26.4737 13.6575C26.0337 13.9275 25.5537 14.0325 25.04 14.0825C24.5475 14.1287 23.9413 14.1288 23.215 14.1288H21.835C20.79 14.1288 19.9188 14.1287 19.2275 14.0363C18.4975 13.9375 17.8387 13.7225 17.3087 13.1925C16.7787 12.6625 16.5638 12.005 16.465 11.2738C16.3725 10.5825 16.3725 9.71125 16.3725 8.66625V7.28375C16.3725 6.55875 16.3725 5.9525 16.4187 5.46C16.4688 4.94625 16.5737 4.46625 16.8438 4.0275C17.1062 3.59625 17.4688 3.235 17.8987 2.97125C18.3387 2.70125 18.8175 2.59625 19.3325 2.54625C19.8237 2.5 20.43 2.5 21.1562 2.5ZM22.1863 9.7675C21.5863 9.7675 21.2862 9.7675 21.075 9.6175C21.0012 9.56377 20.9362 9.49882 20.8825 9.425C20.7325 9.2125 20.7325 8.9125 20.7325 8.31375C20.7325 7.715 20.7325 7.415 20.8825 7.20375C20.9361 7.12949 21.0011 7.06411 21.075 7.01C21.2875 6.86 21.5875 6.86 22.1863 6.86C22.785 6.86 23.085 6.86 23.2962 7.01C23.3713 7.06417 23.4358 7.12875 23.49 7.20375C23.64 7.415 23.64 7.715 23.64 8.31375C23.64 8.9125 23.64 9.21375 23.49 9.425C23.4359 9.49891 23.3705 9.56387 23.2962 9.6175C23.085 9.7675 22.785 9.7675 22.1863 9.7675ZM13.1 2.97125C12.6625 2.70125 12.1825 2.59625 11.6675 2.54625C11.175 2.5 10.57 2.5 9.84375 2.5H9.75875C8.65375 2.5 7.7625 2.5 7.04625 2.56875C6.30625 2.63875 5.66125 2.7875 5.0825 3.1425C4.495 3.5025 4.0025 3.995 3.6425 4.5825C3.2875 5.16125 3.13875 5.80625 3.0675 6.545C3 7.2625 3 8.155 3 9.25875V9.34625C3 10.0713 3 10.6763 3.04625 11.1688C3.09625 11.6838 3.20125 12.1625 3.47125 12.6025C3.73375 13.0325 4.09625 13.3937 4.5275 13.6575C4.96625 13.9275 5.44625 14.0325 5.96 14.0825C6.4525 14.1287 7.0575 14.1288 7.785 14.1288H9.165C10.21 14.1288 11.0812 14.1287 11.7725 14.0363C12.5025 13.9375 13.1613 13.7225 13.6913 13.1925C14.2213 12.6625 14.4362 12.005 14.535 11.2738C14.6275 10.5825 14.6275 9.71125 14.6275 8.66625V7.28375C14.6275 6.55875 14.6275 5.9525 14.5813 5.46C14.5312 4.94625 14.4263 4.46625 14.1562 4.0275C13.8928 3.59716 13.5313 3.23523 13.1013 2.97125M7.705 9.6175C7.91625 9.7675 8.21625 9.7675 8.815 9.7675C9.41375 9.7675 9.715 9.7675 9.92625 9.6175C10.0001 9.56377 10.065 9.49882 10.1188 9.425C10.2688 9.2125 10.2688 8.9125 10.2688 8.31375C10.2688 7.715 10.2688 7.415 10.1188 7.20375C10.0651 7.12949 10.0002 7.06411 9.92625 7.01C9.71375 6.86 9.41375 6.86 8.815 6.86C8.21625 6.86 7.91625 6.86 7.705 7.01C7.63064 7.06401 7.56526 7.12939 7.51125 7.20375C7.36125 7.415 7.36125 7.715 7.36125 8.31375C7.36125 8.9125 7.36125 9.21375 7.51125 9.425C7.56536 9.49891 7.63074 9.56387 7.705 9.6175ZM11.7725 15.965C12.5025 16.0638 13.1613 16.2787 13.6913 16.8087C14.2213 17.3387 14.4362 17.9963 14.535 18.7275C14.6275 19.4188 14.6275 20.29 14.6275 21.335V22.7163C14.6275 23.4412 14.6275 24.0475 14.5813 24.54C14.5312 25.0537 14.4263 25.5338 14.1562 25.9725C13.8938 26.4037 13.5312 26.765 13.1013 27.0287C12.6613 27.2987 12.1825 27.4037 11.6675 27.4537C11.175 27.5 10.57 27.5 9.84375 27.5H9.75875C8.65375 27.5 7.7625 27.5 7.04625 27.4312C6.30625 27.3612 5.66125 27.2125 5.0825 26.8575C4.49591 26.4975 4.00255 26.0041 3.6425 25.4175C3.2875 24.8387 3.13875 24.1938 3.0675 23.455C3 22.7375 3 21.8463 3 20.7425V20.655C3 19.93 3 19.3237 3.04625 18.8325C3.09625 18.3175 3.20125 17.8387 3.47125 17.3987C3.73375 16.9688 4.09625 16.6075 4.5275 16.3438C4.96625 16.0737 5.44625 15.9688 5.96 15.9187C6.4525 15.8725 7.0575 15.8725 7.785 15.8725H9.165C10.21 15.8725 11.0812 15.8725 11.7725 15.965ZM8.81375 23.14C8.21375 23.14 7.915 23.14 7.70375 22.99C7.62939 22.936 7.56401 22.8706 7.51 22.7962C7.36 22.585 7.36 22.285 7.36 21.6863C7.36 21.0875 7.36 20.7862 7.51 20.575C7.56411 20.5011 7.62949 20.4361 7.70375 20.3825C7.915 20.2325 8.215 20.2325 8.81375 20.2325C9.4125 20.2325 9.71375 20.2325 9.925 20.3825C10 20.4367 10.0642 20.5008 10.1175 20.575C10.2675 20.7875 10.2675 21.0875 10.2675 21.6863C10.2675 22.285 10.2675 22.585 10.1175 22.7962C10.0639 22.8705 9.99891 22.9359 9.925 22.99C9.7125 23.14 9.4125 23.14 8.81375 23.14Z" fill="white"/>
<path d="M16.3727 20.77V20.8137H18.1164C18.1164 19.9787 18.1164 19.4187 18.1614 18.9912C18.2027 18.5787 18.2777 18.3887 18.3614 18.2625C18.4681 18.1046 18.6038 17.9684 18.7614 17.8612C18.8889 17.7775 19.0789 17.7025 19.4914 17.6612C19.9189 17.6175 20.4789 17.6162 21.3139 17.6162H23.6389V15.8725H21.2702C20.4914 15.8725 19.8414 15.8725 19.3152 15.925C18.7652 15.9812 18.2539 16.1037 17.7939 16.4112C17.4439 16.6437 17.1439 16.9437 16.9114 17.2937C16.6039 17.7537 16.4814 18.265 16.4252 18.815C16.3727 19.34 16.3727 19.99 16.3727 20.77ZM28.0002 23.1687V23.14H26.2564C26.2564 23.6937 26.2564 24.065 26.2364 24.3525C26.2164 24.6325 26.1827 24.7687 26.1452 24.8587C26.0723 25.0354 25.9652 25.196 25.8301 25.3311C25.6949 25.4663 25.5344 25.5734 25.3577 25.6462C25.2702 25.6825 25.1327 25.7162 24.8527 25.7362C24.5652 25.755 24.1939 25.7562 23.6402 25.7562H21.3152V27.5H23.6689C24.1864 27.5 24.6177 27.5 24.9714 27.475C25.3328 27.4613 25.6894 27.3874 26.0264 27.2562C26.8095 26.9315 27.4317 26.3093 27.7564 25.5262C27.8964 25.1887 27.9514 24.84 27.9764 24.4712C28.0002 24.1175 28.0002 23.6862 28.0002 23.1687ZM18.1164 26.6275C18.1209 26.7448 18.1016 26.8617 18.0598 26.9714C18.018 27.081 17.9545 27.1811 17.8731 27.2657C17.7917 27.3502 17.6941 27.4175 17.5861 27.4634C17.4781 27.5093 17.3619 27.533 17.2446 27.533C17.1272 27.533 17.0111 27.5093 16.9031 27.4634C16.7951 27.4175 16.6975 27.3502 16.6161 27.2657C16.5347 27.1811 16.4711 27.081 16.4293 26.9714C16.3875 26.8617 16.3683 26.7448 16.3727 26.6275V23.14H18.1164V26.6275ZM27.1277 15.8725C26.8969 15.8735 26.6759 15.9656 26.5127 16.1288C26.3495 16.2919 26.2574 16.513 26.2564 16.7437V20.8137H28.0002V16.7437C27.9992 16.5128 27.9069 16.2915 27.7435 16.1283C27.58 15.9651 27.3587 15.8732 27.1277 15.8725ZM20.5952 20.7712C20.5002 21.0012 20.5002 21.2925 20.5002 21.875C20.5002 22.4575 20.5002 22.7487 20.5952 22.9787C20.7223 23.2844 20.9655 23.5272 21.2714 23.6537C21.5014 23.75 21.7927 23.75 22.3752 23.75C22.9577 23.75 23.2489 23.75 23.4789 23.655C23.7846 23.5279 24.0274 23.2847 24.1539 22.9787C24.2502 22.7487 24.2502 22.4575 24.2502 21.875C24.2502 21.2925 24.2502 21.0012 24.1552 20.7712C24.0281 20.4656 23.7849 20.2228 23.4789 20.0962C23.2489 20 22.9577 20 22.3752 20C21.7927 20 21.5014 20 21.2714 20.095C20.9658 20.2221 20.7218 20.4653 20.5952 20.7712Z" fill="white"/>
</svg>
