<svg width="173" height="194" viewBox="0 0 173 194" fill="none" xmlns="http://www.w3.org/2000/svg">
<path d="M9.40625 1.10156H163.537C167.956 1.10156 171.537 4.68329 171.537 9.10156V163.233C171.537 167.651 167.956 171.233 163.537 171.233H9.40626C4.98798 171.233 1.40625 167.651 1.40625 163.233V9.10157C1.40625 4.68329 4.98797 1.10156 9.40625 1.10156Z" fill="url(#paint0_linear_795_1467)" stroke="url(#paint1_linear_795_1467)" stroke-width="2"/>
<path d="M48.2564 15.1973H15.5V47.952H48.2564V15.1973ZM42.973 42.6696H20.7826V20.4802H42.973V42.6696Z" fill="url(#paint2_linear_795_1467)"/>
<path d="M38.3494 24.8115H24.8203V38.3383H38.3494V24.8115Z" fill="url(#paint3_linear_795_1467)"/>
<path d="M70.0904 15.1973H59.1719V26.1162H70.0904V15.1973Z" fill="url(#paint4_linear_795_1467)"/>
<path d="M26.4192 69.79H15.5V80.7076V91.6284H26.4192V80.7076V69.79Z" fill="url(#paint5_linear_795_1467)"/>
<path d="M48.2544 69.79H37.3359V80.7076H48.2544V69.79Z" fill="url(#paint6_linear_795_1467)"/>
<path d="M37.3327 58.873H26.4141V69.7906H37.3327V58.873Z" fill="url(#paint7_linear_795_1467)"/>
<path d="M135.612 69.7901V58.8725H124.693H113.773V69.7901H124.693V80.7076H135.612V91.6285H124.693H113.773V80.7076V69.7901H102.853V58.8725H113.773V47.952V37.0337H102.853V26.1162H113.773V15.1973H102.853H91.9348H81.0156V26.1162H91.9348V37.0337V47.952H81.0156V58.8725H91.9348V69.7901V80.7076H81.0156V91.6285H91.9348V102.545V113.464H81.0156V124.382H91.9348V135.3V146.22H81.0156V157.138H91.9348H102.853H113.773V146.22H102.853V135.3H113.773V124.382V113.464H102.853V102.545H113.773H124.693V113.464H135.612V102.545H146.532V113.464H157.452V102.545V91.6285H146.532V80.7076H157.452V69.7901H146.532H135.612Z" fill="url(#paint8_linear_795_1467)"/>
<path d="M124.695 15.1973V47.952H157.454V15.1973H124.695ZM152.17 42.6696H129.979V20.4802H152.17V42.6696Z" fill="url(#paint9_linear_795_1467)"/>
<path d="M147.538 24.8115H134.008V38.3383H147.538V24.8115Z" fill="url(#paint10_linear_795_1467)"/>
<path d="M15.5 157.138H48.2564V124.382H15.5V157.138ZM20.7826 129.665H42.973V151.857H20.7826V129.665Z" fill="url(#paint11_linear_795_1467)"/>
<path d="M38.3494 133.997H24.8203V147.525H38.3494V133.997Z" fill="url(#paint12_linear_795_1467)"/>
<path d="M81.0089 124.382H70.0891V113.464H81.0089V102.546V91.6285H70.0891V80.7077H81.0089V69.7901H70.0891V58.8726V47.952H81.0089V37.0338V26.1162H70.0891V37.0338H59.1706V47.952V58.8726H48.2512V69.7901H59.1706V80.7077H48.2512V91.6285H59.1706V102.546H48.2512V91.6285H37.3327H26.4141V102.546H37.3327V113.464H48.2512H59.1706V124.382V135.3H70.0891V146.22H81.0089V135.3V124.382Z" fill="url(#paint13_linear_795_1467)"/>
<path d="M70.0904 146.22H59.1719V157.138H70.0904V146.22Z" fill="url(#paint14_linear_795_1467)"/>
<path d="M26.4192 102.546H15.5V113.465H26.4192V102.546Z" fill="url(#paint15_linear_795_1467)"/>
<path d="M124.695 157.138H157.454V124.382H124.695V157.138ZM129.979 129.665H152.17V151.857H129.979V129.665Z" fill="url(#paint16_linear_795_1467)"/>
<path d="M147.538 133.997H134.008V147.525H147.538V133.997Z" fill="url(#paint17_linear_795_1467)"/>
<path d="M54.4829 120.014C54.4829 121.454 53.3142 122.622 51.8742 122.622C50.433 122.622 49.2656 121.454 49.2656 120.014V108.966C49.2656 107.525 50.433 106.357 51.8742 106.357C53.314 106.357 54.4829 107.525 54.4829 108.966V120.014Z" fill="#222222"/>
<path d="M54.5766 100.632C54.5766 102.073 53.4079 103.241 51.9681 103.241C50.5269 103.241 49.3594 102.073 49.3594 100.632V74.8612C49.3594 73.4203 50.5267 72.2529 51.9681 72.2529C53.4079 72.2529 54.5766 73.4203 54.5766 74.8612V100.632Z" fill="#222222"/>
<path d="M53.6025 99.5972C53.6025 100.768 52.8292 101.717 51.8755 101.717C50.9218 101.717 50.1484 100.768 50.1484 99.5972V75.8971C50.1484 74.7263 50.9218 73.7773 51.8755 73.7773C52.8292 73.7773 53.6025 74.7263 53.6025 75.8971V99.5972Z" fill="#3E3E3E"/>
<path d="M53.505 118.979C53.505 120.15 52.7544 121.099 51.8275 121.099C50.9006 121.099 50.1484 120.15 50.1484 118.979V110.002C50.1484 108.831 50.9004 107.883 51.8275 107.883C52.7545 107.883 53.505 108.832 53.505 110.002V118.979Z" fill="#393939"/>
<path d="M123.69 188.121C123.69 191.368 121.058 194 117.811 194H57.8471C54.6001 194 51.9688 191.368 51.9688 188.121V61.1394C51.9688 57.8923 54.6001 55.2607 57.8471 55.2607H117.811C121.058 55.2607 123.69 57.8925 123.69 61.1394V188.121Z" fill="#222222"/>
<path d="M117.811 55.2607H57.8471C54.6001 55.2607 51.9688 57.8925 51.9688 61.1394V63.197C51.9688 59.9504 54.6001 57.3184 57.8471 57.3184H117.811C121.058 57.3184 123.69 59.9504 123.69 63.197V61.1394C123.69 57.8923 121.058 55.2607 117.811 55.2607Z" fill="#525252"/>
<path d="M57.8471 194H117.811C121.058 194 123.69 191.368 123.69 188.122V186.064C123.69 189.311 121.058 191.943 117.811 191.943H57.8471C54.6001 191.943 51.9688 189.311 51.9688 186.064V188.122C51.9689 191.368 54.6001 194 57.8471 194Z" fill="#343C40"/>
<path d="M121.532 184.302C121.532 187.353 119.058 189.826 116.006 189.826H59.6494C56.5987 189.826 54.125 187.353 54.125 184.302V64.958C54.125 61.9067 56.5987 59.4326 59.6494 59.4326H116.006C119.058 59.4326 121.532 61.9067 121.532 64.958V184.302Z" fill="url(#paint18_linear_795_1467)"/>
<path d="M57.4335 59.8994C55.486 60.7537 54.125 62.696 54.125 64.959V184.303C54.125 187.354 56.5987 189.827 59.6494 189.827H116.006C119.058 189.827 121.532 187.354 121.532 184.303V175.333C113.329 162.045 63.9076 70.6007 57.4335 59.8994Z" fill="url(#paint19_linear_795_1467)"/>
<path d="M88.8047 58.4878V58.3906L87.8257 58.439L86.8454 58.3906V58.4878L67.7891 59.4331C67.7891 59.4331 72.2969 59.8054 73.3735 60.6639C74.5984 61.6406 75.0873 62.6727 75.6269 64.0442C76.3469 65.8751 77.7853 65.8019 79.6179 65.8019H86.8454H88.8047H96.0334C97.866 65.8019 99.3045 65.875 100.024 64.0442C100.564 62.6727 101.053 61.6406 102.278 60.6639C103.354 59.8054 107.862 59.4331 107.862 59.4331L88.8047 58.4878Z" fill="#222222"/>
<path d="M90.5806 61.6417C90.5806 62.3447 90.0102 62.9153 89.3063 62.9153H81.6649C80.961 62.9153 80.3906 62.3447 80.3906 61.6417C80.3906 60.9379 80.961 60.3682 81.6649 60.3682H89.3063C90.0102 60.3682 90.5806 60.9379 90.5806 61.6417Z" fill="url(#paint20_linear_795_1467)"/>
<path d="M95.2815 61.6417C95.2815 62.3447 94.7111 62.9153 94.0073 62.9153C93.3034 62.9153 92.7344 62.3447 92.7344 61.6417C92.7344 60.9379 93.3034 60.3682 94.0073 60.3682C94.7111 60.3682 95.2815 60.9379 95.2815 61.6417Z" fill="url(#paint21_linear_795_1467)"/>
<path d="M109.63 91.2295H66.2031V134.656H109.63V91.2295Z" fill="url(#paint22_linear_795_1467)"/>
<path d="M112.759 126.626V137.325H101.594V139.996H115.187V126.626H112.759Z" fill="url(#paint23_linear_795_1467)"/>
<path d="M74.2295 88.0956H63.5293V99.2605H60.8594V85.667H74.2295V88.0956Z" fill="url(#paint24_linear_795_1467)"/>
<path d="M78.3276 95.1562H70.1172V103.365H78.3276V95.1562ZM77.004 102.042H71.4423V96.4797H77.004V102.042Z" fill="url(#paint25_linear_795_1467)"/>
<path d="M75.8444 97.5654H72.4531V100.956H75.8444V97.5654Z" fill="url(#paint26_linear_795_1467)"/>
<path d="M83.807 95.1562H81.0703V97.8924H83.807V95.1562Z" fill="url(#paint27_linear_795_1467)"/>
<path d="M72.8539 108.839H70.1172V111.575V114.312H72.8539V111.575V108.839Z" fill="url(#paint28_linear_795_1467)"/>
<path d="M78.3306 108.839H75.5938V111.575H78.3306V108.839Z" fill="url(#paint29_linear_795_1467)"/>
<path d="M75.5884 106.103H72.8516V108.839H75.5884V106.103Z" fill="url(#paint30_linear_795_1467)"/>
<path d="M100.222 108.839V106.102H97.485H94.7481V108.839H97.485V111.575H100.222V114.312H97.485H94.7481V111.575V108.839H92.0114V106.102H94.7481V103.365V100.629H92.0114V97.8924H94.7481V95.1562H92.0114H89.2745H86.5391V97.8924H89.2745V100.629V103.365H86.5391V106.102H89.2745V108.839V111.575H86.5391V114.312H89.2745V117.048V119.785H86.5391V122.521H89.2745V125.258V127.994H86.5391V130.731H89.2745H92.0114H94.7481V127.994H92.0114V125.258H94.7481V122.521V119.785H92.0114V117.048H94.7481H97.485V119.785H100.222V117.048H102.959V119.785H105.695V117.048V114.312H102.959V111.575H105.695V108.839H102.959H100.222Z" fill="url(#paint31_linear_795_1467)"/>
<path d="M97.4844 95.1562V103.365H105.695V95.1562H97.4844ZM104.371 102.042H98.8093V96.4797H104.371V102.042Z" fill="url(#paint32_linear_795_1467)"/>
<path d="M103.21 97.5654H99.8203V100.956H103.21V97.5654Z" fill="url(#paint33_linear_795_1467)"/>
<path d="M70.1172 130.731H78.3276V122.521H70.1172V130.731ZM71.4422 123.845H77.0039V129.408H71.4422V123.845Z" fill="url(#paint34_linear_795_1467)"/>
<path d="M75.8444 124.931H72.4531V128.322H75.8444V124.931Z" fill="url(#paint35_linear_795_1467)"/>
<path d="M86.5357 122.52H83.7989V119.784H86.5357V117.047V114.311H83.7989V111.574H86.5357V108.838H83.7989V106.101V103.365H86.5357V100.628V97.8916H83.7989V100.628H81.0621V103.365V106.101H78.3253V108.838H81.0621V111.574H78.3253V114.311H81.0621V117.047H78.3253V114.311H75.5884H72.8516V117.047H75.5884V119.784H78.3253H81.0621V122.52V125.257H83.7989V127.993H86.5357V125.257V122.52Z" fill="url(#paint36_linear_795_1467)"/>
<path d="M83.807 127.994H81.0703V130.731H83.807V127.994Z" fill="url(#paint37_linear_795_1467)"/>
<path d="M72.8539 117.048H70.1172V119.785H72.8539V117.048Z" fill="url(#paint38_linear_795_1467)"/>
<path d="M97.4844 130.731H105.695V122.521H97.4844V130.731ZM98.8095 123.845H104.371V129.408H98.8095V123.845Z" fill="url(#paint39_linear_795_1467)"/>
<path d="M103.21 124.931H99.8203V128.322H103.21V124.931Z" fill="url(#paint40_linear_795_1467)"/>
<path d="M108.393 158.904C108.393 161.286 106.462 163.217 104.08 163.217H75.5473C73.1658 163.217 71.2344 161.286 71.2344 158.904V151.714C71.2344 149.332 73.1658 147.401 75.5473 147.401H104.08C106.462 147.401 108.393 149.332 108.393 151.714V158.904Z" fill="url(#paint41_linear_795_1467)"/>
<path d="M104.083 147.401H75.5503C74.1384 147.401 72.8882 148.083 72.1016 149.132C72.7359 148.765 73.4707 148.551 74.2574 148.551H102.789C105.172 148.551 107.103 150.482 107.103 152.865V160.054C107.103 161.024 106.779 161.916 106.239 162.636C107.527 161.89 108.396 160.5 108.396 158.904V151.714C108.396 149.332 106.465 147.401 104.083 147.401Z" fill="url(#paint42_linear_795_1467)"/>
<path d="M81.4173 156.458L81.4086 156.607L81.3912 156.756L81.3645 156.896L81.3212 157.089L81.2777 157.211L81.1989 157.386L81.1373 157.5L81.0318 157.658L80.9443 157.763L80.8395 157.868L80.7339 157.964L80.5589 158.078L80.4454 158.157L80.3138 158.227L80.1917 158.288L79.99 158.358L79.7275 158.446L79.5873 158.472L79.3689 158.507L79.2373 158.525L79.0443 158.542L78.9221 158.551L78.721 158.56L78.3003 158.586H78.108L77.9851 158.577L77.7842 158.56L77.6526 158.542L77.5036 158.516L77.3721 158.472L77.1798 158.411L77.0576 158.349L76.926 158.288L76.8031 158.227L76.6896 158.157L76.4092 157.964L76.3043 157.876L76.1468 157.754L76.042 157.666L75.9459 157.57L75.8758 157.491L75.8672 157.43L75.9106 157.351L75.946 157.307L76.0335 157.211L76.2785 156.983L76.3574 156.887L76.5064 156.659L76.5852 156.563L76.6726 156.467L76.7689 156.414L76.8651 156.432L76.9613 156.502L77.2418 156.694L77.3727 156.765L77.4955 156.826L77.6973 156.922L77.8282 156.966L77.9684 157.01L78.1087 157.036L78.3097 157.045L78.45 157.053L79.0017 157.018L79.1419 157.001L79.212 156.983L79.3429 156.931L79.4571 156.861L79.5445 156.773L79.588 156.712L79.6408 156.581L79.6321 156.432L79.614 156.362L79.5445 156.239L79.5005 156.187L79.387 156.099L79.3168 156.073L79.1852 156.02L79.0369 155.985L78.8874 155.959L78.0559 155.88L77.7934 155.827L77.6531 155.793L77.4608 155.723L77.3292 155.679L77.1976 155.618L76.9005 155.469L76.7863 155.39L76.6554 155.311L76.5412 155.232L76.3923 155.11L76.3135 154.996L76.2347 154.865L76.1826 154.733L76.1212 154.549L76.0951 154.418L76.0684 154.225L76.051 153.945L76.0596 153.805L76.0771 153.595L76.1038 153.464L76.1385 153.35L76.1825 153.219L76.2699 153.026L76.3306 152.903L76.4014 152.799L76.4883 152.702L76.6285 152.571L76.7427 152.483L76.8562 152.404L76.979 152.343L77.1453 152.247L77.4078 152.142L77.5394 152.098L77.7403 152.063L77.8806 152.037L78.1431 152.002L78.3361 151.967L78.4756 151.949L78.6072 151.94H78.7474L79.0099 151.967L79.1415 151.984L79.2022 152.002L79.3425 152.019L79.6403 152.072L79.7892 152.107L79.9287 152.15L80.0784 152.194L80.218 152.247L80.3496 152.308L80.4805 152.361L80.6474 152.457L80.7697 152.518L80.8839 152.597L80.9627 152.676V152.764L80.9099 152.86L80.8132 153.035L80.7437 153.14L80.4111 153.578L80.3143 153.7L80.2095 153.788L80.1394 153.814L80.0786 153.806L79.9904 153.762L79.8595 153.683L79.7279 153.63L79.6664 153.604L79.5349 153.561L79.4654 153.543L79.3164 153.508L79.1155 153.464L78.9752 153.455L78.7476 153.438H78.5199L78.3709 153.447L78.2219 153.473L78.0816 153.517L78.0296 153.543L77.924 153.622L77.8806 153.674L77.8191 153.797L77.8017 153.937L77.8278 154.051L77.8978 154.165L77.9946 154.252L78.0995 154.305L78.1603 154.331L78.2919 154.357L78.511 154.383L78.8082 154.401L78.9577 154.427L79.2549 154.497L79.5348 154.585L79.7364 154.628L79.868 154.664L80.1131 154.751L80.288 154.83L80.411 154.891L80.5332 154.961L80.6474 155.031L80.9013 155.242L80.9974 155.346L81.085 155.452L81.1898 155.609L81.2599 155.723L81.3213 155.854L81.3567 155.986L81.3915 156.178L81.4089 156.31L81.4173 156.458Z" fill="url(#paint43_linear_795_1467)"/>
<path d="M87.9447 157.623L87.8747 157.693L87.717 157.833L87.6122 157.912L87.4459 158.034L87.3404 158.104L87.1654 158.201L87.0518 158.262L86.8502 158.358L86.7193 158.402L86.5703 158.446L86.4214 158.472L86.2024 158.516L85.8957 158.551L85.7381 158.56L85.5197 158.577H85.0642L84.9152 158.569L84.7662 158.551L84.6173 158.525L84.4683 158.49L84.3374 158.446L83.9433 158.341L83.751 158.271L83.6368 158.218L83.4706 158.122L83.3657 158.043L83.2515 157.965L83.1292 157.886L82.9016 157.693L82.796 157.588L82.6998 157.474L82.6036 157.343L82.5247 157.22L82.4547 157.098L82.394 156.975L82.3058 156.791L82.1749 156.424L82.1135 156.249L82.0261 155.986L82.0087 155.855L82 155.653L82.0087 155.522L82.0173 155.382V155.233L82.0347 154.935L82.0433 154.795L82.0694 154.664L82.1047 154.471L82.1394 154.34L82.1836 154.209L82.227 154.086L82.2884 153.911L82.3498 153.789L82.4112 153.657L82.4807 153.526L82.5595 153.395L82.6384 153.272L82.7265 153.159L82.8227 153.036L82.9276 152.922L83.0325 152.826L83.1466 152.729L83.2515 152.642L83.532 152.449L83.6455 152.379L83.7683 152.309L84.0308 152.187L84.1796 152.134L84.3199 152.09L84.6171 152.02L84.7659 151.994L84.9149 151.976L85.1867 151.959L85.3791 151.941L85.51 151.95L85.703 151.959L86.0269 152.003L86.1497 152.029L86.3507 152.064L86.6572 152.151L86.7794 152.204L86.9724 152.318L87.0946 152.388L87.3223 152.545L87.5934 152.738L87.6902 152.808L87.7422 152.852L87.8037 152.913L87.8211 152.983L87.8124 153.053L87.7604 153.123L87.6815 153.219L87.5854 153.315L87.4887 153.403L87.3926 153.482L87.2963 153.578L87.1475 153.753L87.0513 153.858L87.0073 153.902L86.9284 153.972L86.8669 153.999L86.806 154.007L86.7446 153.99L86.6485 153.937L86.4823 153.815L86.3681 153.753L86.1757 153.666L86.0529 153.622L85.8606 153.569L85.7292 153.543L85.51 153.526H85.3704L85.1774 153.543L85.0372 153.578L84.8449 153.639L84.714 153.692L84.5998 153.735L84.4247 153.823L84.3019 153.91L84.2412 153.963L84.1357 154.077L84.0568 154.2L83.9954 154.313L83.9347 154.436L83.8819 154.567L83.8378 154.707L83.8117 154.856L83.7943 154.987L83.7771 155.25V155.39L83.7857 155.609L83.7943 155.74L83.8378 155.942L83.8819 156.073L83.9433 156.222L84.0135 156.353L84.145 156.546L84.2412 156.651L84.4075 156.791L84.521 156.87L84.696 156.957L84.8276 157.01L85.0199 157.062L85.1602 157.089L85.3706 157.097H85.5717L85.6945 157.071L85.7638 157.054L85.8954 157.01L86.1145 156.931L86.2547 156.87L86.3863 156.808L86.4998 156.747L86.6661 156.642L86.7796 156.554L86.867 156.493L86.9198 156.475L86.9986 156.493L87.0949 156.554L87.1916 156.642L87.2263 156.695L87.3138 156.791L87.454 156.966L87.5414 157.071L87.7779 157.342L87.8567 157.448L87.9002 157.491L87.9442 157.57V157.623H87.9447Z" fill="url(#paint44_linear_795_1467)"/>
<path d="M95.6674 158.174L95.6942 158.297L95.6327 158.393L95.5365 158.437L95.4223 158.454H95.3001L95.0984 158.437L94.9675 158.428H94.5734L94.0305 158.463L93.9163 158.428L93.8642 158.358L93.8202 158.262L93.549 157.527L93.4876 157.439L93.4088 157.421L93.304 157.413L92.7784 157.378H92.6382L91.9817 157.36L91.4567 157.351H91.3251L91.1942 157.36H90.7908L90.6773 157.378L90.6071 157.422L90.5544 157.527L90.3533 158.122L90.3005 158.262L90.2043 158.376L90.0734 158.429L89.9331 158.42L89.4249 158.393H89.2853L88.7424 158.429L88.6282 158.437L88.5233 158.385L88.4531 158.289L88.4618 158.175L88.4798 158.105L88.5319 157.965L88.6548 157.693L88.7068 157.562L88.9259 157.071L88.9787 156.949L89.2064 156.459L89.2584 156.327L89.4601 155.855L89.5122 155.723L89.7486 155.233L89.8014 155.11L90.1165 154.392L90.3616 153.867L90.423 153.727L90.6154 153.333L90.6768 153.193L90.843 152.79L90.8958 152.659L91.0535 152.3L91.0968 152.204L91.1844 152.151L91.3158 152.125L91.7185 152.107H92.4012L92.8046 152.116L92.9529 152.142L93.0497 152.212L93.0931 152.326L93.216 152.668L93.2681 152.799L93.4872 153.211L93.54 153.333L93.7323 153.762L93.7851 153.885L93.9427 154.331L93.9948 154.454L94.1878 154.874L94.2406 154.996L94.4329 155.426L94.485 155.548L94.6607 155.986L94.7135 156.109L94.9846 156.651L95.1944 157.063L95.2559 157.185L95.4924 157.737L95.6674 158.174ZM92.7436 155.705L92.7088 155.591L92.5158 154.996L92.4723 154.865L92.2966 154.348L92.2533 154.235L92.1651 154.173L92.0515 154.147L91.9553 154.173L91.8678 154.261L91.6314 154.856L91.5786 154.988L91.3516 155.574L91.3249 155.706L91.3516 155.811L91.4477 155.854L91.5698 155.872H92.1215L92.5329 155.898L92.6471 155.863L92.7166 155.793L92.7436 155.705Z" fill="url(#paint45_linear_795_1467)"/>
<path d="M102.569 153.473L102.561 153.614V154.909L102.587 155.417V155.557L102.605 156.713V156.862L102.596 156.932L102.587 157.081L102.561 157.501L102.57 158.009L102.561 158.131L102.526 158.236L102.456 158.333L102.369 158.394L102.29 158.42L102.167 158.429L101.721 158.446L101.581 158.455L101.362 158.464H101.222L101.108 158.437L101.003 158.393L100.897 158.315L100.819 158.201L100.688 157.947L100.609 157.833L100.267 157.404L100.18 157.299L99.8379 156.879L99.7591 156.765L99.4526 156.31L99.3738 156.205L99.0325 155.785L98.9449 155.68L98.621 155.25L98.5421 155.18L98.4807 155.207L98.4547 155.312L98.4367 155.749V155.89L98.4461 156.327V156.467L98.4547 156.957V157.098L98.4288 157.588L98.4367 157.728L98.4895 158.078L98.4981 158.218L98.4721 158.332L98.4107 158.393L98.35 158.411L98.2444 158.428L98.1744 158.437L98.0254 158.446L97.6233 158.437H97.4831L97.1238 158.455H96.9836L96.8527 158.446L96.7566 158.428L96.6864 158.385L96.6511 158.323L96.6336 158.236L96.625 158.174V158.043L96.6424 157.754L96.6511 157.614L96.625 157.15V157.01L96.6424 155.942L96.6511 155.802L96.6776 155.338L96.6863 155.198V154.593L96.6509 154.13V153.989L96.6863 153.526L96.6776 153.385L96.6423 152.913L96.6336 152.773V152.571L96.6423 152.44L96.6602 152.309L96.6776 152.212L96.7037 152.151L96.7565 152.125L96.8526 152.107L97.115 152.09L97.3775 152.107H98.0347L98.1395 152.116L98.183 152.151L98.2358 152.23L98.6038 152.624L98.6914 152.729L99.0153 153.149L99.1028 153.254L99.4267 153.683L99.5143 153.788L99.8294 154.226L99.9082 154.331L100.241 154.751L100.328 154.857L100.644 155.294L100.714 155.355L100.784 155.364L100.845 155.321V155.224L100.784 154.856L100.775 154.716L100.801 154.34V154.2L100.766 153.666V153.526L100.801 152.991L100.793 152.852L100.766 152.528V152.309L100.793 152.195L100.828 152.125L100.889 152.09L100.993 152.072H101.072L101.222 152.063L101.615 152.09H101.755L102.053 152.072L102.185 152.081L102.386 152.09L102.482 152.107L102.543 152.134L102.596 152.195L102.614 152.317L102.622 152.396L102.631 152.545L102.613 152.816L102.596 152.957L102.569 153.473Z" fill="url(#paint46_linear_795_1467)"/>
<defs>
<linearGradient id="paint0_linear_795_1467" x1="173" y1="91.5" x2="-3.00001" y2="93" gradientUnits="userSpaceOnUse">
<stop stop-color="#141414"/>
<stop offset="1" stop-color="#353535"/>
</linearGradient>
<linearGradient id="paint1_linear_795_1467" x1="-2.99188e-06" y1="4.5" x2="127" y2="130" gradientUnits="userSpaceOnUse">
<stop stop-color="white" stop-opacity="0.3"/>
<stop offset="1" stop-color="#999999" stop-opacity="0"/>
</linearGradient>
<linearGradient id="paint2_linear_795_1467" x1="31.8782" y1="15.1973" x2="31.8782" y2="47.952" gradientUnits="userSpaceOnUse">
<stop stop-color="#002D71"/>
<stop offset="1" stop-color="#3C83F1"/>
</linearGradient>
<linearGradient id="paint3_linear_795_1467" x1="31.5849" y1="24.8115" x2="31.5849" y2="38.3383" gradientUnits="userSpaceOnUse">
<stop stop-color="#002D71"/>
<stop offset="1" stop-color="#3C83F1"/>
</linearGradient>
<linearGradient id="paint4_linear_795_1467" x1="64.6311" y1="15.1973" x2="64.6311" y2="26.1162" gradientUnits="userSpaceOnUse">
<stop stop-color="#002D71"/>
<stop offset="1" stop-color="#3C83F1"/>
</linearGradient>
<linearGradient id="paint5_linear_795_1467" x1="20.9596" y1="69.79" x2="20.9596" y2="91.6284" gradientUnits="userSpaceOnUse">
<stop stop-color="#002D71"/>
<stop offset="1" stop-color="#3C83F1"/>
</linearGradient>
<linearGradient id="paint6_linear_795_1467" x1="42.7952" y1="69.79" x2="42.7952" y2="80.7076" gradientUnits="userSpaceOnUse">
<stop stop-color="#002D71"/>
<stop offset="1" stop-color="#3C83F1"/>
</linearGradient>
<linearGradient id="paint7_linear_795_1467" x1="31.8734" y1="58.873" x2="31.8734" y2="69.7906" gradientUnits="userSpaceOnUse">
<stop stop-color="#002D71"/>
<stop offset="1" stop-color="#3C83F1"/>
</linearGradient>
<linearGradient id="paint8_linear_795_1467" x1="119.234" y1="15.1973" x2="119.234" y2="157.138" gradientUnits="userSpaceOnUse">
<stop stop-color="#002D71"/>
<stop offset="1" stop-color="#3C83F1"/>
</linearGradient>
<linearGradient id="paint9_linear_795_1467" x1="141.075" y1="15.1973" x2="141.075" y2="47.952" gradientUnits="userSpaceOnUse">
<stop stop-color="#002D71"/>
<stop offset="1" stop-color="#3C83F1"/>
</linearGradient>
<linearGradient id="paint10_linear_795_1467" x1="140.773" y1="24.8115" x2="140.773" y2="38.3383" gradientUnits="userSpaceOnUse">
<stop stop-color="#002D71"/>
<stop offset="1" stop-color="#3C83F1"/>
</linearGradient>
<linearGradient id="paint11_linear_795_1467" x1="31.8782" y1="124.382" x2="31.8782" y2="157.138" gradientUnits="userSpaceOnUse">
<stop stop-color="#002D71"/>
<stop offset="1" stop-color="#3C83F1"/>
</linearGradient>
<linearGradient id="paint12_linear_795_1467" x1="31.5849" y1="133.997" x2="31.5849" y2="147.525" gradientUnits="userSpaceOnUse">
<stop stop-color="#002D71"/>
<stop offset="1" stop-color="#3C83F1"/>
</linearGradient>
<linearGradient id="paint13_linear_795_1467" x1="53.7115" y1="26.1162" x2="53.7115" y2="146.22" gradientUnits="userSpaceOnUse">
<stop stop-color="#002D71"/>
<stop offset="1" stop-color="#3C83F1"/>
</linearGradient>
<linearGradient id="paint14_linear_795_1467" x1="64.6311" y1="146.22" x2="64.6311" y2="157.138" gradientUnits="userSpaceOnUse">
<stop stop-color="#002D71"/>
<stop offset="1" stop-color="#3C83F1"/>
</linearGradient>
<linearGradient id="paint15_linear_795_1467" x1="20.9596" y1="102.546" x2="20.9596" y2="113.465" gradientUnits="userSpaceOnUse">
<stop stop-color="#002D71"/>
<stop offset="1" stop-color="#3C83F1"/>
</linearGradient>
<linearGradient id="paint16_linear_795_1467" x1="141.075" y1="124.382" x2="141.075" y2="157.138" gradientUnits="userSpaceOnUse">
<stop stop-color="#002D71"/>
<stop offset="1" stop-color="#3C83F1"/>
</linearGradient>
<linearGradient id="paint17_linear_795_1467" x1="140.773" y1="133.997" x2="140.773" y2="147.525" gradientUnits="userSpaceOnUse">
<stop stop-color="#002D71"/>
<stop offset="1" stop-color="#3C83F1"/>
</linearGradient>
<linearGradient id="paint18_linear_795_1467" x1="87.8283" y1="59.4326" x2="87.8283" y2="189.826" gradientUnits="userSpaceOnUse">
<stop stop-color="#484848"/>
<stop offset="1" stop-color="#393939"/>
</linearGradient>
<linearGradient id="paint19_linear_795_1467" x1="87.8283" y1="59.8994" x2="87.8283" y2="189.827" gradientUnits="userSpaceOnUse">
<stop stop-color="#1E1E1E"/>
<stop offset="1" stop-color="#424242"/>
</linearGradient>
<linearGradient id="paint20_linear_795_1467" x1="85" y1="58" x2="85" y2="63" gradientUnits="userSpaceOnUse">
<stop/>
<stop offset="1" stop-color="#666666"/>
</linearGradient>
<linearGradient id="paint21_linear_795_1467" x1="94.0079" y1="60.3682" x2="94.0079" y2="62.9153" gradientUnits="userSpaceOnUse">
<stop stop-color="#2B2B2B"/>
<stop offset="1" stop-color="#666666"/>
</linearGradient>
<linearGradient id="paint22_linear_795_1467" x1="87.9167" y1="91.2295" x2="87.9167" y2="134.656" gradientUnits="userSpaceOnUse">
<stop stop-color="#5D5D5D"/>
<stop offset="1" stop-color="#1E1E1E"/>
</linearGradient>
<linearGradient id="paint23_linear_795_1467" x1="108.39" y1="126.626" x2="108.39" y2="139.996" gradientUnits="userSpaceOnUse">
<stop stop-color="#2F2F2F"/>
<stop offset="1" stop-color="#6B6B6B"/>
</linearGradient>
<linearGradient id="paint24_linear_795_1467" x1="67.5444" y1="85.667" x2="67.5444" y2="99.2605" gradientUnits="userSpaceOnUse">
<stop stop-color="#626262"/>
<stop offset="1" stop-color="#2D2D2D"/>
</linearGradient>
<linearGradient id="paint25_linear_795_1467" x1="74.2224" y1="95.1562" x2="74.2224" y2="103.365" gradientUnits="userSpaceOnUse">
<stop stop-color="#7D7D7D"/>
<stop offset="1" stop-color="#535353"/>
</linearGradient>
<linearGradient id="paint26_linear_795_1467" x1="74.1488" y1="97.5654" x2="74.1488" y2="100.956" gradientUnits="userSpaceOnUse">
<stop stop-color="#7D7D7D"/>
<stop offset="1" stop-color="#535353"/>
</linearGradient>
<linearGradient id="paint27_linear_795_1467" x1="82.4387" y1="95.1562" x2="82.4387" y2="97.8924" gradientUnits="userSpaceOnUse">
<stop stop-color="#7D7D7D"/>
<stop offset="1" stop-color="#535353"/>
</linearGradient>
<linearGradient id="paint28_linear_795_1467" x1="71.4855" y1="108.839" x2="71.4855" y2="114.312" gradientUnits="userSpaceOnUse">
<stop stop-color="#7D7D7D"/>
<stop offset="1" stop-color="#535353"/>
</linearGradient>
<linearGradient id="paint29_linear_795_1467" x1="76.9622" y1="108.839" x2="76.9622" y2="111.575" gradientUnits="userSpaceOnUse">
<stop stop-color="#7D7D7D"/>
<stop offset="1" stop-color="#535353"/>
</linearGradient>
<linearGradient id="paint30_linear_795_1467" x1="74.22" y1="106.103" x2="74.22" y2="108.839" gradientUnits="userSpaceOnUse">
<stop stop-color="#7D7D7D"/>
<stop offset="1" stop-color="#535353"/>
</linearGradient>
<linearGradient id="paint31_linear_795_1467" x1="96.1172" y1="95.1562" x2="96.1172" y2="130.731" gradientUnits="userSpaceOnUse">
<stop stop-color="#7D7D7D"/>
<stop offset="1" stop-color="#535353"/>
</linearGradient>
<linearGradient id="paint32_linear_795_1467" x1="101.59" y1="95.1562" x2="101.59" y2="103.365" gradientUnits="userSpaceOnUse">
<stop stop-color="#7D7D7D"/>
<stop offset="1" stop-color="#535353"/>
</linearGradient>
<linearGradient id="paint33_linear_795_1467" x1="101.515" y1="97.5654" x2="101.515" y2="100.956" gradientUnits="userSpaceOnUse">
<stop stop-color="#7D7D7D"/>
<stop offset="1" stop-color="#535353"/>
</linearGradient>
<linearGradient id="paint34_linear_795_1467" x1="74.2224" y1="122.521" x2="74.2224" y2="130.731" gradientUnits="userSpaceOnUse">
<stop stop-color="#7D7D7D"/>
<stop offset="1" stop-color="#535353"/>
</linearGradient>
<linearGradient id="paint35_linear_795_1467" x1="74.1488" y1="124.931" x2="74.1488" y2="128.322" gradientUnits="userSpaceOnUse">
<stop stop-color="#7D7D7D"/>
<stop offset="1" stop-color="#535353"/>
</linearGradient>
<linearGradient id="paint36_linear_795_1467" x1="79.6936" y1="97.8916" x2="79.6936" y2="127.993" gradientUnits="userSpaceOnUse">
<stop stop-color="#7D7D7D"/>
<stop offset="1" stop-color="#535353"/>
</linearGradient>
<linearGradient id="paint37_linear_795_1467" x1="82.4387" y1="127.994" x2="82.4387" y2="130.731" gradientUnits="userSpaceOnUse">
<stop stop-color="#7D7D7D"/>
<stop offset="1" stop-color="#535353"/>
</linearGradient>
<linearGradient id="paint38_linear_795_1467" x1="71.4855" y1="117.048" x2="71.4855" y2="119.785" gradientUnits="userSpaceOnUse">
<stop stop-color="#7D7D7D"/>
<stop offset="1" stop-color="#535353"/>
</linearGradient>
<linearGradient id="paint39_linear_795_1467" x1="101.59" y1="122.521" x2="101.59" y2="130.731" gradientUnits="userSpaceOnUse">
<stop stop-color="#7D7D7D"/>
<stop offset="1" stop-color="#535353"/>
</linearGradient>
<linearGradient id="paint40_linear_795_1467" x1="101.515" y1="124.931" x2="101.515" y2="128.322" gradientUnits="userSpaceOnUse">
<stop stop-color="#7D7D7D"/>
<stop offset="1" stop-color="#535353"/>
</linearGradient>
<linearGradient id="paint41_linear_795_1467" x1="89.8138" y1="147.401" x2="89.8138" y2="163.217" gradientUnits="userSpaceOnUse">
<stop stop-color="#5B5B5B"/>
<stop offset="1" stop-color="#171717"/>
</linearGradient>
<linearGradient id="paint42_linear_795_1467" x1="90.2489" y1="147.401" x2="90.2489" y2="162.636" gradientUnits="userSpaceOnUse">
<stop stop-color="#6D6D6D"/>
<stop offset="1" stop-color="#323232"/>
</linearGradient>
<linearGradient id="paint43_linear_795_1467" x1="75.8672" y1="155.263" x2="81.4173" y2="155.263" gradientUnits="userSpaceOnUse">
<stop stop-color="#727272"/>
<stop offset="1" stop-color="#B9B9B9"/>
</linearGradient>
<linearGradient id="paint44_linear_795_1467" x1="82" y1="155.259" x2="87.9447" y2="155.259" gradientUnits="userSpaceOnUse">
<stop stop-color="#727272"/>
<stop offset="1" stop-color="#B9B9B9"/>
</linearGradient>
<linearGradient id="paint45_linear_795_1467" x1="88.4531" y1="155.285" x2="95.6942" y2="155.285" gradientUnits="userSpaceOnUse">
<stop stop-color="#727272"/>
<stop offset="1" stop-color="#B9B9B9"/>
</linearGradient>
<linearGradient id="paint46_linear_795_1467" x1="96.625" y1="155.264" x2="102.631" y2="155.264" gradientUnits="userSpaceOnUse">
<stop stop-color="#727272"/>
<stop offset="1" stop-color="#B9B9B9"/>
</linearGradient>
</defs>
</svg>
