<svg width="25" height="14" viewBox="0 0 25 14" fill="none" xmlns="http://www.w3.org/2000/svg">
<path d="M11.25 13.25H6.25C4.52083 13.25 3.04708 12.6404 1.82875 11.4212C0.610418 10.2021 0.000834187 8.72833 8.53242e-07 7C-0.00083248 5.27167 0.608751 3.79792 1.82875 2.57875C3.04875 1.35958 4.5225 0.75 6.25 0.75H11.25V3.25H6.25C5.20833 3.25 4.32292 3.61458 3.59375 4.34375C2.86458 5.07292 2.5 5.95833 2.5 7C2.5 8.04167 2.86458 8.92708 3.59375 9.65625C4.32292 10.3854 5.20833 10.75 6.25 10.75H11.25V13.25ZM7.5 8.25V5.75H17.5V8.25H7.5ZM13.75 13.25V10.75H18.75C19.7917 10.75 20.6771 10.3854 21.4062 9.65625C22.1354 8.92708 22.5 8.04167 22.5 7C22.5 5.95833 22.1354 5.07292 21.4062 4.34375C20.6771 3.61458 19.7917 3.25 18.75 3.25H13.75V0.75H18.75C20.4792 0.75 21.9533 1.35958 23.1725 2.57875C24.3917 3.79792 25.0008 5.27167 25 7C24.9992 8.72833 24.3896 10.2025 23.1713 11.4225C21.9529 12.6425 20.4792 13.2517 18.75 13.25H13.75Z" fill="white"/>
</svg>
